<?xml version="1.0" encoding="utf-8"?>
<!-- Generator: Adobe Illustrator 27.6.1, SVG Export Plug-In . SVG Version: 6.00 Build 0)  -->
<svg version="1.1" id="Layer_1" xmlns="http://www.w3.org/2000/svg" xmlns:xlink="http://www.w3.org/1999/xlink" x="0px" y="0px"
	 viewBox="0 0 99 99" style="enable-background:new 0 0 99 99;" xml:space="preserve">
<style type="text/css">
	.st0{fill:#E24F3A;}
	.st1{fill:#E14F39;}
	.st2{fill:#E2503A;}
</style>
<g>
	<g>
		<path class="st0" d="M99,99H0V0h99V99z M3.6,95.4h91.8V3.6H3.6V95.4z"/>
	</g>
	<g>
		<g>
			<g>
				<path class="st1" d="M22,72.32c0.14,0.62,0.33,1.11,0.57,1.47c0.24,0.36,0.55,0.63,0.93,0.8c0.38,0.17,0.87,0.26,1.47,0.26
					c0.83,0,1.46-0.22,1.9-0.65c0.44-0.43,0.66-1.06,0.66-1.89c0-0.53-0.09-0.98-0.28-1.34c-0.18-0.36-0.48-0.7-0.9-1.02
					c-0.42-0.32-1.05-0.69-1.91-1.11c-0.83-0.41-1.48-0.81-1.96-1.2c-0.48-0.39-0.84-0.82-1.08-1.28c-0.24-0.46-0.36-0.96-0.36-1.51
					c0-0.79,0.19-1.48,0.56-2.06c0.37-0.58,0.92-1.03,1.63-1.35c0.72-0.32,1.54-0.48,2.46-0.48c0.54,0,1.06,0.03,1.57,0.09
					c0.51,0.06,1.15,0.18,1.92,0.38v2.86h-1.05c-0.16-0.62-0.37-1.11-0.62-1.45c-0.25-0.35-0.54-0.59-0.87-0.73
					c-0.33-0.14-0.76-0.21-1.29-0.21c-0.46,0-0.87,0.08-1.24,0.25c-0.36,0.17-0.65,0.43-0.86,0.77c-0.21,0.34-0.32,0.75-0.32,1.22
					c0,0.5,0.09,0.93,0.27,1.27c0.18,0.35,0.46,0.67,0.84,0.96c0.38,0.3,0.95,0.63,1.7,1c0.9,0.45,1.61,0.87,2.1,1.26
					c0.5,0.39,0.89,0.83,1.17,1.33c0.28,0.5,0.42,1.08,0.42,1.74c0,0.74-0.12,1.37-0.35,1.88c-0.23,0.51-0.56,0.93-0.97,1.25
					c-0.41,0.32-0.91,0.55-1.48,0.7c-0.58,0.14-1.21,0.22-1.89,0.22c-1.11,0-2.39-0.19-3.84-0.56v-2.9H22z"/>
				<path class="st1" d="M40.5,63.85l-3.39,11.84h-1.72L32.3,64.17c-0.13-0.48-0.24-0.87-0.35-1.18c-0.11-0.3-0.21-0.54-0.32-0.72
					c-0.11-0.17-0.22-0.3-0.35-0.39c-0.12-0.09-0.3-0.16-0.54-0.23v-0.52h4.54v0.52c-0.44,0.09-0.74,0.21-0.92,0.38
					c-0.17,0.17-0.26,0.41-0.26,0.71c0,0.25,0.03,0.54,0.1,0.88c0.06,0.34,0.15,0.72,0.26,1.16l2.13,8.37l3.41-12.02h1.78
					l2.77,12.03l2.5-8.09c0.3-0.98,0.46-1.68,0.46-2.1c0-0.43-0.09-0.74-0.27-0.93c-0.18-0.19-0.48-0.32-0.9-0.39v-0.52h4.18v0.52
					c-0.21,0.07-0.38,0.15-0.51,0.24c-0.13,0.09-0.25,0.21-0.36,0.36c-0.12,0.15-0.24,0.39-0.38,0.71c-0.14,0.32-0.3,0.75-0.48,1.28
					l-3.86,11.44h-1.52L40.5,63.85z"/>
				<path class="st1" d="M55.04,72.96c0,0.47,0.02,0.82,0.05,1.04c0.03,0.22,0.09,0.39,0.16,0.52c0.07,0.13,0.18,0.23,0.33,0.32
					c0.14,0.09,0.38,0.17,0.7,0.25v0.52h-4.47v-0.52c0.44-0.11,0.73-0.24,0.88-0.38c0.15-0.14,0.24-0.33,0.29-0.59
					c0.05-0.25,0.07-0.64,0.07-1.17v-9.17c0-0.49-0.02-0.84-0.05-1.07c-0.04-0.22-0.09-0.4-0.17-0.52c-0.08-0.12-0.19-0.22-0.32-0.3
					c-0.13-0.07-0.36-0.16-0.69-0.25v-0.52h4.47v0.52c-0.31,0.08-0.53,0.16-0.67,0.23c-0.14,0.08-0.25,0.17-0.33,0.29
					c-0.08,0.12-0.14,0.29-0.18,0.52c-0.04,0.23-0.06,0.59-0.06,1.08V72.96z"/>
				<path class="st1" d="M59.82,72.32c0.14,0.62,0.33,1.11,0.57,1.47c0.24,0.36,0.55,0.63,0.93,0.8c0.38,0.17,0.87,0.26,1.47,0.26
					c0.83,0,1.46-0.22,1.9-0.65c0.44-0.43,0.66-1.06,0.66-1.89c0-0.53-0.09-0.98-0.28-1.34c-0.18-0.36-0.48-0.7-0.9-1.02
					c-0.42-0.32-1.05-0.69-1.91-1.11c-0.83-0.41-1.48-0.81-1.96-1.2c-0.48-0.39-0.84-0.82-1.08-1.28c-0.24-0.46-0.36-0.96-0.36-1.51
					c0-0.79,0.19-1.48,0.56-2.06c0.37-0.58,0.92-1.03,1.63-1.35c0.72-0.32,1.54-0.48,2.46-0.48c0.54,0,1.06,0.03,1.57,0.09
					c0.51,0.06,1.15,0.18,1.92,0.38v2.86h-1.05c-0.16-0.62-0.37-1.11-0.62-1.45c-0.25-0.35-0.54-0.59-0.87-0.73
					c-0.33-0.14-0.76-0.21-1.29-0.21c-0.46,0-0.87,0.08-1.24,0.25c-0.36,0.17-0.65,0.43-0.86,0.77c-0.21,0.34-0.32,0.75-0.32,1.22
					c0,0.5,0.09,0.93,0.27,1.27c0.18,0.35,0.46,0.67,0.84,0.96c0.38,0.3,0.95,0.63,1.7,1c0.9,0.45,1.61,0.87,2.1,1.26
					c0.5,0.39,0.89,0.83,1.17,1.33c0.28,0.5,0.42,1.08,0.42,1.74c0,0.74-0.12,1.37-0.35,1.88c-0.23,0.51-0.56,0.93-0.97,1.25
					c-0.41,0.32-0.91,0.55-1.49,0.7c-0.58,0.14-1.21,0.22-1.89,0.22c-1.11,0-2.39-0.19-3.84-0.56v-2.9H59.82z"/>
				<path class="st1" d="M70.59,72.32c0.14,0.62,0.33,1.11,0.57,1.47c0.24,0.36,0.55,0.63,0.93,0.8c0.38,0.17,0.87,0.26,1.47,0.26
					c0.83,0,1.46-0.22,1.9-0.65c0.44-0.43,0.66-1.06,0.66-1.89c0-0.53-0.09-0.98-0.28-1.34c-0.18-0.36-0.48-0.7-0.9-1.02
					c-0.42-0.32-1.05-0.69-1.91-1.11c-0.83-0.41-1.48-0.81-1.96-1.2c-0.48-0.39-0.84-0.82-1.08-1.28c-0.24-0.46-0.35-0.96-0.35-1.51
					c0-0.79,0.19-1.48,0.56-2.06c0.37-0.58,0.91-1.03,1.63-1.35c0.72-0.32,1.54-0.48,2.47-0.48c0.54,0,1.06,0.03,1.57,0.09
					c0.51,0.06,1.15,0.18,1.92,0.38v2.86h-1.05c-0.16-0.62-0.37-1.11-0.61-1.45c-0.25-0.35-0.54-0.59-0.87-0.73
					c-0.33-0.14-0.76-0.21-1.29-0.21c-0.46,0-0.87,0.08-1.23,0.25c-0.36,0.17-0.65,0.43-0.86,0.77c-0.21,0.34-0.32,0.75-0.32,1.22
					c0,0.5,0.09,0.93,0.27,1.27c0.18,0.35,0.46,0.67,0.84,0.96c0.38,0.3,0.95,0.63,1.7,1c0.9,0.45,1.61,0.87,2.1,1.26
					c0.5,0.39,0.89,0.83,1.17,1.33s0.42,1.08,0.42,1.74c0,0.74-0.12,1.37-0.35,1.88c-0.23,0.51-0.56,0.93-0.97,1.25
					s-0.91,0.55-1.48,0.7c-0.58,0.14-1.21,0.22-1.89,0.22c-1.11,0-2.39-0.19-3.84-0.56v-2.9H70.59z"/>
			</g>
		</g>
		<g>
			<g>
				<path class="st2" d="M38.2,44.23c0,1.71-0.16,3.18-0.47,4.42c-0.3,1.18-0.74,2.22-1.34,3.13c-0.55,0.82-1.23,1.51-2.05,2.08
					c-0.82,0.57-1.8,1.02-2.96,1.35c-1.16,0.33-2.53,0.49-4.09,0.49c-1.9,0-3.53-0.21-4.88-0.64c-1.36-0.42-2.48-1.12-3.36-2.08
					c-0.89-0.96-1.53-2.1-1.92-3.41c-0.39-1.31-0.59-2.98-0.59-5V29.1c0-1.22-0.04-2.05-0.12-2.48c-0.08-0.43-0.19-0.77-0.34-1.02
					c-0.15-0.25-0.36-0.47-0.65-0.65c-0.28-0.18-0.81-0.37-1.58-0.58v-1.15h9.88v1.15c-0.88,0.22-1.49,0.47-1.84,0.74
					c-0.35,0.27-0.58,0.69-0.71,1.24C21.06,26.9,21,27.81,21,29.1v16.66c0,1.52,0.16,2.8,0.48,3.83c0.32,1.04,0.77,1.84,1.35,2.41
					c0.58,0.57,1.27,0.99,2.07,1.25c0.8,0.26,1.8,0.39,2.99,0.39c1.1,0,2.06-0.19,2.89-0.58c0.83-0.38,1.53-0.97,2.08-1.75
					c0.56-0.78,0.94-1.75,1.14-2.89c0.2-1.14,0.31-2.68,0.31-4.61V29.1c0-1.36-0.07-2.3-0.2-2.8c-0.13-0.5-0.35-0.89-0.66-1.15
					c-0.31-0.27-0.94-0.53-1.89-0.78v-1.15h9.39v1.15c-0.91,0.24-1.53,0.49-1.87,0.78c-0.34,0.28-0.57,0.69-0.69,1.22
					c-0.13,0.53-0.19,1.44-0.19,2.73V44.23z"/>
				<path class="st2" d="M52.97,49.45c0,1.05,0.04,1.82,0.11,2.31c0.07,0.49,0.19,0.87,0.35,1.15c0.17,0.28,0.41,0.52,0.73,0.71
					c0.32,0.19,0.84,0.38,1.56,0.56v1.15h-9.93v-1.15c0.97-0.25,1.62-0.53,1.95-0.84c0.33-0.31,0.55-0.74,0.65-1.31
					c0.1-0.56,0.15-1.43,0.15-2.59V29.1c0-1.08-0.04-1.87-0.12-2.36c-0.08-0.49-0.21-0.88-0.39-1.15c-0.18-0.27-0.42-0.49-0.72-0.66
					c-0.3-0.16-0.81-0.35-1.53-0.55v-1.15h9.93v1.15c-0.69,0.17-1.19,0.35-1.49,0.52c-0.31,0.17-0.55,0.39-0.73,0.65
					c-0.18,0.26-0.31,0.65-0.4,1.16s-0.13,1.32-0.13,2.4V49.45z"/>
				<path class="st2" d="M61.42,55.33v-1.15c0.97-0.25,1.62-0.53,1.95-0.84c0.33-0.31,0.54-0.74,0.65-1.31
					c0.1-0.56,0.15-1.43,0.15-2.59V29.1c0-1.08-0.04-1.87-0.12-2.36c-0.08-0.49-0.21-0.88-0.39-1.15c-0.18-0.27-0.42-0.49-0.72-0.66
					c-0.3-0.16-0.81-0.35-1.53-0.55v-1.15h12.87c2.49,0,4.5,0.27,6.01,0.8c1.51,0.53,2.64,1.32,3.38,2.36
					c0.74,1.04,1.11,2.39,1.11,4.03c0,1.36-0.26,2.55-0.79,3.55c-0.53,1-1.21,1.84-2.06,2.49c-0.85,0.66-1.94,1.27-3.27,1.84v0.21
					c2.13,0.64,3.75,1.64,4.85,2.98c1.1,1.34,1.65,2.94,1.65,4.79c0,2.13-0.47,3.87-1.42,5.22c-0.95,1.35-2.28,2.33-3.99,2.93
					c-1.71,0.6-3.78,0.91-6.21,0.91H61.42z M72.69,37.62c2.38,0,4.21-0.58,5.47-1.73c1.26-1.15,1.89-2.83,1.89-5.02
					c0-1.08-0.18-1.98-0.53-2.69c-0.35-0.71-0.84-1.28-1.46-1.71c-0.62-0.42-1.35-0.73-2.2-0.91c-0.85-0.18-1.76-0.27-2.75-0.27
					c-0.6,0-1.38,0.02-2.35,0.05c-0.97,0.03-1.7,0.06-2.19,0.09v12.19H72.69z M68.57,53.1c1.14,0.11,2.42,0.16,3.83,0.16
					c2.05,0,3.65-0.26,4.79-0.78c1.14-0.52,1.96-1.28,2.47-2.29c0.51-1.01,0.77-2.28,0.77-3.8c0-1.52-0.28-2.78-0.84-3.76
					c-0.56-0.99-1.42-1.73-2.58-2.21c-1.16-0.49-2.76-0.73-4.8-0.73h-3.65V53.1z"/>
			</g>
		</g>
	</g>
</g>
</svg>
