<?xml version="1.0" encoding="utf-8"?>
<!-- Generator: Adobe Illustrator 27.6.1, SVG Export Plug-In . SVG Version: 6.00 Build 0)  -->
<svg version="1.1" id="Layer_1" xmlns="http://www.w3.org/2000/svg" xmlns:xlink="http://www.w3.org/1999/xlink" x="0px" y="0px"
	 viewBox="0 0 304.12 304.12" style="enable-background:new 0 0 304.12 304.12;" xml:space="preserve">
<style type="text/css">
	.st0{fill:#FFFFFF;}
</style>
<rect class="st0" width="304.12" height="304.12"/>
<g>
	<g>
		<path d="M304.12,304.12H0V0h304.12V304.12z M11.06,293.06h282.01V11.06H11.06V293.06z"/>
	</g>
	<g>
		<g>
			<g>
				<path d="M67.58,222.15c0.44,1.91,1.02,3.42,1.76,4.53c0.74,1.11,1.69,1.93,2.87,2.46c1.17,0.53,2.68,0.8,4.53,0.8
					c2.54,0,4.49-0.66,5.85-1.99c1.36-1.32,2.03-3.26,2.03-5.8c0-1.63-0.28-3-0.84-4.1c-0.57-1.11-1.49-2.15-2.77-3.13
					c-1.28-0.98-3.23-2.12-5.86-3.42c-2.54-1.26-4.55-2.49-6.02-3.7c-1.48-1.21-2.58-2.51-3.3-3.92c-0.73-1.41-1.09-2.95-1.09-4.62
					c0-2.43,0.57-4.54,1.71-6.34c1.14-1.79,2.81-3.18,5.02-4.15c2.2-0.98,4.73-1.47,7.57-1.47c1.65,0,3.26,0.09,4.84,0.26
					c1.57,0.17,3.54,0.56,5.91,1.17v8.79h-3.22c-0.5-1.91-1.13-3.4-1.89-4.46c-0.76-1.06-1.65-1.81-2.67-2.23
					c-1.02-0.42-2.35-0.63-3.97-0.63c-1.41,0-2.68,0.26-3.79,0.78c-1.12,0.52-2,1.31-2.65,2.36c-0.65,1.05-0.98,2.31-0.98,3.76
					c0,1.54,0.28,2.84,0.83,3.91c0.55,1.06,1.42,2.05,2.59,2.96c1.17,0.91,2.91,1.93,5.21,3.06c2.78,1.39,4.93,2.68,6.46,3.88
					c1.53,1.19,2.72,2.56,3.58,4.09c0.86,1.53,1.29,3.32,1.29,5.36c0,2.28-0.36,4.21-1.07,5.78c-0.72,1.57-1.71,2.86-2.98,3.84
					c-1.27,0.99-2.79,1.7-4.56,2.15c-1.77,0.44-3.71,0.67-5.81,0.67c-3.41,0-7.34-0.57-11.79-1.73v-8.92H67.58z"/>
				<path d="M124.41,196.13l-10.42,36.38h-5.28l-9.48-35.37c-0.39-1.48-0.75-2.68-1.07-3.62c-0.33-0.93-0.65-1.67-0.98-2.2
					c-0.33-0.53-0.68-0.93-1.06-1.2c-0.38-0.27-0.93-0.5-1.64-0.7v-1.6h13.94v1.6c-1.35,0.26-2.28,0.65-2.82,1.17
					c-0.53,0.52-0.8,1.25-0.8,2.18c0,0.76,0.1,1.66,0.29,2.7c0.2,1.04,0.47,2.23,0.81,3.55l6.55,25.73l10.48-36.93h5.47l8.5,36.96
					l7.68-24.85c0.93-3.02,1.4-5.17,1.4-6.45c0-1.32-0.28-2.28-0.83-2.87c-0.55-0.59-1.47-0.99-2.75-1.2v-1.6h12.83v1.6
					c-0.65,0.22-1.17,0.46-1.56,0.73c-0.39,0.27-0.76,0.64-1.12,1.11c-0.36,0.47-0.75,1.19-1.17,2.17
					c-0.42,0.98-0.92,2.29-1.48,3.94l-11.85,35.14h-4.66L124.41,196.13z"/>
				<path d="M169.09,224.13c0,1.45,0.05,2.52,0.15,3.19c0.1,0.67,0.26,1.2,0.49,1.6c0.23,0.39,0.56,0.72,1.01,0.98
					c0.44,0.26,1.17,0.52,2.16,0.78v1.6h-13.74v-1.6c1.35-0.35,2.25-0.73,2.7-1.16c0.45-0.42,0.75-1.03,0.9-1.81
					c0.14-0.78,0.21-1.97,0.21-3.58v-28.17c0-1.5-0.05-2.59-0.16-3.27c-0.11-0.68-0.29-1.22-0.54-1.6
					c-0.25-0.38-0.58-0.68-0.99-0.91c-0.41-0.23-1.12-0.48-2.12-0.77v-1.6h13.74v1.6c-0.96,0.24-1.64,0.48-2.07,0.72
					c-0.42,0.24-0.76,0.54-1.01,0.9c-0.25,0.36-0.44,0.9-0.56,1.61s-0.18,1.82-0.18,3.32V224.13z"/>
				<path d="M183.75,222.15c0.44,1.91,1.02,3.42,1.76,4.53c0.74,1.11,1.7,1.93,2.87,2.46c1.17,0.53,2.68,0.8,4.53,0.8
					c2.54,0,4.49-0.66,5.85-1.99c1.36-1.32,2.03-3.26,2.03-5.8c0-1.63-0.28-3-0.84-4.1c-0.56-1.11-1.49-2.15-2.77-3.13
					c-1.28-0.98-3.24-2.12-5.86-3.42c-2.54-1.26-4.55-2.49-6.02-3.7c-1.48-1.21-2.58-2.51-3.3-3.92c-0.73-1.41-1.09-2.95-1.09-4.62
					c0-2.43,0.57-4.54,1.71-6.34c1.14-1.79,2.81-3.18,5.02-4.15c2.2-0.98,4.73-1.47,7.57-1.47c1.65,0,3.26,0.09,4.84,0.26
					c1.57,0.17,3.54,0.56,5.91,1.17v8.79h-3.22c-0.5-1.91-1.13-3.4-1.89-4.46c-0.76-1.06-1.65-1.81-2.67-2.23
					c-1.02-0.42-2.35-0.63-3.97-0.63c-1.41,0-2.67,0.26-3.79,0.78c-1.12,0.52-2,1.31-2.65,2.36c-0.65,1.05-0.98,2.31-0.98,3.76
					c0,1.54,0.28,2.84,0.83,3.91c0.55,1.06,1.42,2.05,2.59,2.96c1.17,0.91,2.91,1.93,5.21,3.06c2.78,1.39,4.93,2.68,6.46,3.88
					c1.53,1.19,2.72,2.56,3.58,4.09c0.86,1.53,1.29,3.32,1.29,5.36c0,2.28-0.36,4.21-1.07,5.78c-0.72,1.57-1.71,2.86-2.98,3.84
					c-1.27,0.99-2.79,1.7-4.56,2.15c-1.77,0.44-3.7,0.67-5.81,0.67c-3.41,0-7.34-0.57-11.79-1.73v-8.92H183.75z"/>
				<path d="M216.83,222.15c0.43,1.91,1.02,3.42,1.76,4.53c0.74,1.11,1.69,1.93,2.87,2.46c1.17,0.53,2.68,0.8,4.53,0.8
					c2.54,0,4.49-0.66,5.85-1.99c1.36-1.32,2.04-3.26,2.04-5.8c0-1.63-0.28-3-0.85-4.1c-0.56-1.11-1.49-2.15-2.77-3.13
					c-1.28-0.98-3.24-2.12-5.86-3.42c-2.54-1.26-4.55-2.49-6.03-3.7c-1.47-1.21-2.58-2.51-3.3-3.92c-0.73-1.41-1.09-2.95-1.09-4.62
					c0-2.43,0.57-4.54,1.71-6.34c1.14-1.79,2.81-3.18,5.01-4.15c2.2-0.98,4.73-1.47,7.57-1.47c1.65,0,3.26,0.09,4.83,0.26
					c1.58,0.17,3.55,0.56,5.91,1.17v8.79h-3.22c-0.5-1.91-1.13-3.4-1.89-4.46c-0.76-1.06-1.65-1.81-2.67-2.23
					c-1.02-0.42-2.34-0.63-3.97-0.63c-1.41,0-2.67,0.26-3.79,0.78c-1.12,0.52-2,1.31-2.65,2.36c-0.65,1.05-0.98,2.31-0.98,3.76
					c0,1.54,0.28,2.84,0.83,3.91c0.55,1.06,1.42,2.05,2.59,2.96c1.17,0.91,2.91,1.93,5.21,3.06c2.78,1.39,4.93,2.68,6.46,3.88
					c1.53,1.19,2.73,2.56,3.58,4.09s1.29,3.32,1.29,5.36c0,2.28-0.36,4.21-1.07,5.78c-0.72,1.57-1.71,2.86-2.98,3.84
					c-1.27,0.99-2.79,1.7-4.56,2.15c-1.77,0.44-3.71,0.67-5.81,0.67c-3.41,0-7.34-0.57-11.79-1.73v-8.92H216.83z"/>
			</g>
		</g>
		<g>
			<g>
				<path d="M117.33,135.86c0,5.25-0.48,9.78-1.45,13.59c-0.91,3.61-2.29,6.82-4.12,9.61c-1.69,2.51-3.78,4.64-6.29,6.4
					c-2.51,1.76-5.54,3.14-9.11,4.16c-3.57,1.01-7.76,1.52-12.58,1.52c-5.83,0-10.83-0.65-15-1.95c-4.17-1.3-7.61-3.43-10.33-6.4
					c-2.72-2.96-4.69-6.46-5.89-10.48c-1.21-4.02-1.81-9.14-1.81-15.36V89.39c0-3.76-0.12-6.3-0.36-7.62
					c-0.24-1.32-0.59-2.37-1.05-3.14c-0.46-0.77-1.12-1.43-1.99-1.99c-0.87-0.55-2.48-1.14-4.84-1.77v-3.54h30.35v3.54
					c-2.7,0.68-4.58,1.43-5.64,2.28c-1.06,0.84-1.78,2.11-2.17,3.79c-0.39,1.69-0.58,4.51-0.58,8.46v51.17
					c0,4.67,0.49,8.6,1.48,11.78c0.99,3.18,2.37,5.65,4.16,7.41c1.78,1.76,3.9,3.04,6.36,3.83c2.46,0.8,5.52,1.19,9.18,1.19
					c3.37,0,6.33-0.59,8.89-1.77c2.55-1.18,4.69-2.97,6.4-5.38c1.71-2.41,2.88-5.37,3.51-8.89c0.63-3.52,0.94-8.24,0.94-14.16V89.39
					c0-4.19-0.2-7.06-0.61-8.6c-0.41-1.54-1.08-2.72-2.02-3.54c-0.94-0.82-2.88-1.61-5.82-2.39v-3.54h28.83v3.54
					c-2.79,0.72-4.71,1.52-5.75,2.39c-1.04,0.87-1.75,2.12-2.13,3.76c-0.39,1.64-0.58,4.43-0.58,8.38V135.86z"/>
				<path d="M162.72,151.9c0,3.23,0.11,5.59,0.33,7.08c0.21,1.49,0.58,2.67,1.08,3.54c0.51,0.87,1.25,1.59,2.24,2.17
					c0.99,0.58,2.59,1.16,4.81,1.73v3.54h-30.5v-3.54c2.99-0.77,4.99-1.63,6-2.57c1.01-0.94,1.67-2.28,1.99-4.01
					c0.31-1.73,0.47-4.38,0.47-7.95V89.39c0-3.32-0.12-5.75-0.36-7.26c-0.24-1.52-0.64-2.7-1.19-3.54c-0.55-0.84-1.29-1.52-2.2-2.02
					c-0.91-0.51-2.48-1.07-4.7-1.7v-3.54h30.5v3.54c-2.12,0.53-3.65,1.06-4.59,1.59c-0.94,0.53-1.69,1.19-2.24,1.99
					c-0.56,0.79-0.96,1.99-1.23,3.58c-0.26,1.59-0.4,4.05-0.4,7.37V151.9z"/>
				<path d="M188.66,169.97v-3.54c2.99-0.77,4.99-1.63,6-2.57c1.01-0.94,1.67-2.28,1.99-4.01c0.31-1.73,0.47-4.38,0.47-7.95V89.39
					c0-3.32-0.12-5.75-0.36-7.26c-0.24-1.52-0.64-2.7-1.19-3.54c-0.55-0.84-1.29-1.52-2.2-2.02c-0.91-0.51-2.48-1.07-4.7-1.7v-3.54
					h39.53c7.66,0,13.82,0.82,18.47,2.46c4.65,1.64,8.1,4.06,10.37,7.26c2.26,3.2,3.4,7.34,3.4,12.39c0,4.19-0.81,7.83-2.42,10.91
					c-1.61,3.08-3.72,5.64-6.32,7.66c-2.6,2.02-5.95,3.9-10.05,5.64v0.65c6.55,1.98,11.51,5.02,14.89,9.14
					c3.37,4.12,5.06,9.02,5.06,14.71c0,6.55-1.46,11.9-4.37,16.04c-2.92,4.14-7,7.14-12.25,9c-5.25,1.86-11.61,2.78-19.08,2.78
					H188.66z M223.28,115.55c7.32,0,12.92-1.77,16.8-5.31c3.88-3.54,5.82-8.68,5.82-15.43c0-3.32-0.54-6.08-1.63-8.28
					c-1.08-2.19-2.58-3.94-4.48-5.24c-1.9-1.3-4.16-2.23-6.76-2.78c-2.6-0.55-5.42-0.83-8.45-0.83c-1.83,0-4.24,0.05-7.23,0.14
					c-2.99,0.1-5.23,0.19-6.72,0.29v37.44H223.28z M210.63,163.1c3.52,0.34,7.44,0.51,11.78,0.51c6.31,0,11.21-0.8,14.71-2.39
					c3.49-1.59,6.02-3.94,7.59-7.05c1.57-3.11,2.35-7,2.35-11.67c0-4.67-0.86-8.53-2.57-11.56c-1.71-3.04-4.35-5.3-7.91-6.79
					c-3.57-1.49-8.48-2.24-14.74-2.24h-11.2V163.1z"/>
			</g>
		</g>
	</g>
</g>
</svg>
