<?xml version="1.0" encoding="utf-8"?>
<!-- Generator: Adobe Illustrator 27.6.1, SVG Export Plug-In . SVG Version: 6.00 Build 0)  -->
<svg version="1.1" id="Layer_1" xmlns="http://www.w3.org/2000/svg" xmlns:xlink="http://www.w3.org/1999/xlink" x="0px" y="0px"
	 viewBox="0 0 455.36 141" style="enable-background:new 0 0 455.36 141;" xml:space="preserve">
<style type="text/css">
	.st0{fill:#E24F3A;}
</style>
<g>
	<path d="M168.72,38.42c-2.81,0-5.26-0.46-7.34-1.37c-2.08-0.91-3.7-2.32-4.84-4.22c-1.14-1.9-1.71-4.32-1.71-7.25V6.69
		c0-0.34,0.11-0.62,0.32-0.83c0.22-0.22,0.49-0.32,0.83-0.32h5.98c0.34,0,0.62,0.11,0.86,0.32c0.23,0.22,0.35,0.49,0.35,0.83v18.85
		c0,2.01,0.48,3.51,1.44,4.52c0.96,1,2.32,1.51,4.08,1.51c1.73,0,3.08-0.5,4.05-1.51c0.97-1,1.46-2.51,1.46-4.52V6.69
		c0-0.34,0.12-0.62,0.35-0.83c0.23-0.22,0.5-0.32,0.81-0.32h6.02c0.31,0,0.58,0.11,0.81,0.32c0.23,0.22,0.35,0.49,0.35,0.83v18.9
		c0,2.93-0.57,5.35-1.71,7.25c-1.14,1.9-2.75,3.31-4.82,4.22C173.93,37.97,171.5,38.42,168.72,38.42z"/>
	<path d="M189.34,37.96c-0.34,0-0.62-0.12-0.83-0.35c-0.22-0.23-0.32-0.5-0.32-0.81V15.03c0-0.34,0.11-0.62,0.32-0.83
		c0.22-0.22,0.49-0.32,0.83-0.32h5.33c0.34,0,0.63,0.11,0.86,0.32c0.23,0.22,0.35,0.49,0.35,0.83v1.76c0.77-0.96,1.81-1.76,3.1-2.41
		c1.3-0.65,2.83-0.97,4.59-0.97c1.79,0,3.37,0.4,4.75,1.2c1.37,0.8,2.46,1.98,3.24,3.52c0.79,1.54,1.18,3.46,1.18,5.74V36.8
		c0,0.31-0.11,0.58-0.32,0.81c-0.22,0.23-0.49,0.35-0.83,0.35h-5.84c-0.31,0-0.58-0.12-0.81-0.35c-0.23-0.23-0.35-0.5-0.35-0.81
		V24.16c0-1.45-0.35-2.57-1.04-3.36c-0.69-0.79-1.72-1.18-3.08-1.18c-1.27,0-2.28,0.39-3.03,1.18c-0.76,0.79-1.13,1.91-1.13,3.36
		V36.8c0,0.31-0.12,0.58-0.35,0.81c-0.23,0.23-0.5,0.35-0.81,0.35H189.34z"/>
	<path d="M219.08,10.4c-0.34,0-0.62-0.11-0.83-0.32c-0.22-0.22-0.32-0.49-0.32-0.83V5.07c0-0.31,0.11-0.58,0.32-0.81
		c0.22-0.23,0.49-0.35,0.83-0.35h5.56c0.31,0,0.58,0.12,0.81,0.35c0.23,0.23,0.35,0.5,0.35,0.81v4.17c0,0.34-0.12,0.62-0.35,0.83
		c-0.23,0.22-0.5,0.32-0.81,0.32H219.08z M219.12,37.96c-0.34,0-0.62-0.12-0.83-0.35c-0.22-0.23-0.32-0.5-0.32-0.81V15.03
		c0-0.34,0.11-0.62,0.32-0.83c0.22-0.22,0.49-0.32,0.83-0.32h5.47c0.34,0,0.62,0.11,0.83,0.32c0.22,0.22,0.32,0.49,0.32,0.83V36.8
		c0,0.31-0.11,0.58-0.32,0.81c-0.22,0.23-0.49,0.35-0.83,0.35H219.12z"/>
	<path d="M243.54,37.96c-1.98,0-3.68-0.32-5.12-0.95c-1.44-0.63-2.54-1.62-3.31-2.96c-0.77-1.34-1.16-3.08-1.16-5.21v-8.89h-3.61
		c-0.34,0-0.63-0.11-0.86-0.32c-0.23-0.22-0.35-0.49-0.35-0.83v-3.75c0-0.34,0.12-0.62,0.35-0.83c0.23-0.22,0.52-0.32,0.86-0.32
		h3.61V6.23c0-0.34,0.12-0.62,0.35-0.83c0.23-0.22,0.5-0.32,0.81-0.32h5.37c0.34,0,0.62,0.11,0.83,0.32
		c0.22,0.22,0.32,0.49,0.32,0.83v7.64h5.79c0.34,0,0.62,0.11,0.86,0.32c0.23,0.22,0.35,0.49,0.35,0.83v3.75
		c0,0.34-0.12,0.62-0.35,0.83c-0.23,0.22-0.52,0.32-0.86,0.32h-5.79v8.25c0,1.05,0.2,1.88,0.6,2.5c0.4,0.62,1.08,0.93,2.04,0.93
		h3.57c0.34,0,0.62,0.11,0.83,0.32c0.22,0.22,0.32,0.49,0.32,0.83v4.03c0,0.31-0.11,0.58-0.32,0.81c-0.22,0.23-0.49,0.35-0.83,0.35
		H243.54z"/>
	<path d="M263.97,38.42c-3.64,0-6.55-0.99-8.71-2.96c-2.16-1.98-3.29-4.91-3.38-8.8c0-0.22,0-0.49,0-0.83c0-0.34,0-0.6,0-0.79
		c0.09-2.44,0.64-4.53,1.64-6.28c1-1.74,2.39-3.07,4.17-3.98c1.78-0.91,3.85-1.37,6.23-1.37c2.72,0,4.96,0.54,6.74,1.62
		c1.78,1.08,3.11,2.55,4.01,4.4c0.9,1.85,1.34,3.97,1.34,6.35v1.11c0,0.34-0.11,0.62-0.32,0.83c-0.22,0.22-0.49,0.32-0.83,0.32
		h-14.82c0,0.03,0,0.08,0,0.14c0,0.06,0,0.12,0,0.19c0.03,0.9,0.19,1.71,0.49,2.46c0.29,0.74,0.73,1.33,1.3,1.76
		c0.57,0.43,1.27,0.65,2.11,0.65c0.62,0,1.14-0.1,1.55-0.3c0.42-0.2,0.76-0.43,1.04-0.69c0.28-0.26,0.49-0.49,0.65-0.67
		c0.28-0.34,0.5-0.55,0.67-0.62c0.17-0.08,0.44-0.12,0.81-0.12h5.74c0.31,0,0.56,0.09,0.76,0.28c0.2,0.19,0.29,0.43,0.25,0.74
		c-0.03,0.53-0.29,1.16-0.79,1.9s-1.21,1.48-2.15,2.2c-0.94,0.73-2.12,1.32-3.54,1.78C267.5,38.19,265.85,38.42,263.97,38.42z
		 M260.03,23.46h7.83v-0.09c0-1.02-0.15-1.89-0.44-2.62c-0.29-0.73-0.74-1.29-1.34-1.69c-0.6-0.4-1.32-0.6-2.15-0.6
		c-0.8,0-1.5,0.2-2.08,0.6c-0.59,0.4-1.04,0.97-1.34,1.69c-0.31,0.73-0.46,1.6-0.46,2.62V23.46z"/>
	<path d="M289.35,38.42c-1.48,0-2.82-0.24-4.01-0.72c-1.19-0.48-2.21-1.19-3.06-2.13c-0.85-0.94-1.5-2.08-1.97-3.43
		c-0.46-1.34-0.73-2.88-0.79-4.61c-0.03-0.62-0.05-1.17-0.05-1.64c0-0.48,0.02-1.03,0.05-1.64c0.06-1.64,0.32-3.13,0.79-4.47
		c0.46-1.34,1.11-2.49,1.95-3.43c0.83-0.94,1.85-1.67,3.06-2.18c1.2-0.51,2.55-0.76,4.03-0.76c1.54,0,2.87,0.25,3.98,0.76
		c1.11,0.51,2.05,1.17,2.83,1.97V6.23c0-0.34,0.11-0.62,0.32-0.83c0.22-0.22,0.49-0.32,0.83-0.32h5.65c0.31,0,0.58,0.11,0.81,0.32
		c0.23,0.22,0.35,0.49,0.35,0.83V36.8c0,0.31-0.12,0.58-0.35,0.81c-0.23,0.23-0.5,0.35-0.81,0.35h-5.23c-0.34,0-0.62-0.12-0.83-0.35
		c-0.22-0.23-0.32-0.5-0.32-0.81v-1.48c-0.74,0.9-1.7,1.64-2.87,2.22C292.53,38.13,291.08,38.42,289.35,38.42z M291.9,32.22
		c1.02,0,1.83-0.22,2.43-0.67c0.6-0.45,1.05-1.03,1.34-1.74c0.29-0.71,0.46-1.48,0.49-2.32c0.03-0.62,0.05-1.2,0.05-1.76
		c0-0.56-0.02-1.13-0.05-1.71c-0.03-0.77-0.2-1.49-0.51-2.15c-0.31-0.66-0.77-1.2-1.39-1.62c-0.62-0.42-1.41-0.63-2.36-0.63
		c-1.02,0-1.83,0.22-2.43,0.65c-0.6,0.43-1.04,1.02-1.3,1.76c-0.26,0.74-0.42,1.56-0.49,2.46c-0.09,0.96-0.09,1.92,0,2.87
		c0.06,0.9,0.22,1.71,0.49,2.46c0.26,0.74,0.7,1.33,1.3,1.76C290.07,32,290.88,32.22,291.9,32.22z"/>
	<path d="M156.26,87.14c-0.34,0-0.62-0.12-0.83-0.35c-0.22-0.23-0.32-0.5-0.32-0.81V55.87c0-0.34,0.11-0.62,0.32-0.83
		c0.22-0.22,0.49-0.32,0.83-0.32h6.21c0.34,0,0.63,0.11,0.86,0.32c0.23,0.22,0.35,0.49,0.35,0.83v30.11c0,0.31-0.12,0.58-0.35,0.81
		c-0.23,0.23-0.52,0.35-0.86,0.35H156.26z"/>
	<path d="M170.76,87.14c-0.34,0-0.62-0.12-0.83-0.35c-0.22-0.23-0.32-0.5-0.32-0.81V64.21c0-0.34,0.11-0.62,0.32-0.83
		c0.22-0.22,0.49-0.32,0.83-0.32h5.33c0.34,0,0.63,0.11,0.86,0.32c0.23,0.22,0.35,0.49,0.35,0.83v1.76c0.77-0.96,1.81-1.76,3.1-2.41
		c1.3-0.65,2.83-0.97,4.59-0.97c1.79,0,3.37,0.4,4.75,1.2c1.37,0.8,2.46,1.98,3.24,3.52c0.79,1.54,1.18,3.46,1.18,5.74v12.92
		c0,0.31-0.11,0.58-0.32,0.81c-0.22,0.23-0.49,0.35-0.83,0.35h-5.84c-0.31,0-0.58-0.12-0.81-0.35c-0.23-0.23-0.35-0.5-0.35-0.81
		V73.33c0-1.45-0.35-2.57-1.04-3.36c-0.69-0.79-1.72-1.18-3.08-1.18c-1.27,0-2.28,0.39-3.03,1.18c-0.76,0.79-1.13,1.91-1.13,3.36
		v12.65c0,0.31-0.12,0.58-0.35,0.81s-0.5,0.35-0.81,0.35H170.76z"/>
	<path d="M211.48,87.14c-1.98,0-3.68-0.32-5.12-0.95c-1.44-0.63-2.54-1.62-3.31-2.96c-0.77-1.34-1.16-3.08-1.16-5.21v-8.89h-3.61
		c-0.34,0-0.63-0.11-0.86-0.32c-0.23-0.22-0.35-0.49-0.35-0.83v-3.75c0-0.34,0.12-0.62,0.35-0.83c0.23-0.22,0.52-0.32,0.86-0.32
		h3.61V55.4c0-0.34,0.12-0.62,0.35-0.83c0.23-0.22,0.5-0.32,0.81-0.32h5.37c0.34,0,0.62,0.11,0.83,0.32
		c0.22,0.22,0.32,0.49,0.32,0.83v7.64h5.79c0.34,0,0.62,0.11,0.86,0.32c0.23,0.22,0.35,0.49,0.35,0.83v3.75
		c0,0.34-0.12,0.62-0.35,0.83c-0.23,0.22-0.52,0.32-0.86,0.32h-5.79v8.25c0,1.05,0.2,1.88,0.6,2.5c0.4,0.62,1.08,0.93,2.04,0.93
		h3.57c0.34,0,0.62,0.11,0.83,0.32c0.22,0.22,0.32,0.49,0.32,0.83v4.03c0,0.31-0.11,0.58-0.32,0.81c-0.22,0.23-0.49,0.35-0.83,0.35
		H211.48z"/>
	<path d="M231.91,87.6c-3.64,0-6.55-0.99-8.71-2.96c-2.16-1.98-3.29-4.91-3.38-8.8c0-0.22,0-0.49,0-0.83c0-0.34,0-0.6,0-0.79
		c0.09-2.44,0.64-4.53,1.64-6.28c1-1.74,2.39-3.07,4.17-3.98c1.78-0.91,3.85-1.37,6.23-1.37c2.72,0,4.96,0.54,6.74,1.62
		c1.78,1.08,3.11,2.55,4.01,4.4c0.9,1.85,1.34,3.97,1.34,6.35v1.11c0,0.34-0.11,0.62-0.32,0.83c-0.22,0.22-0.49,0.32-0.83,0.32
		h-14.82c0,0.03,0,0.08,0,0.14c0,0.06,0,0.12,0,0.19c0.03,0.9,0.19,1.71,0.49,2.46c0.29,0.74,0.73,1.33,1.3,1.76
		c0.57,0.43,1.27,0.65,2.11,0.65c0.62,0,1.13-0.1,1.55-0.3c0.42-0.2,0.76-0.43,1.04-0.69c0.28-0.26,0.49-0.49,0.65-0.67
		c0.28-0.34,0.5-0.55,0.67-0.63c0.17-0.08,0.44-0.12,0.81-0.12h5.74c0.31,0,0.56,0.09,0.76,0.28c0.2,0.19,0.29,0.43,0.25,0.74
		c-0.03,0.53-0.29,1.16-0.79,1.9c-0.49,0.74-1.21,1.48-2.15,2.2c-0.94,0.73-2.12,1.32-3.54,1.78
		C235.45,87.37,233.79,87.6,231.91,87.6z M227.97,72.64h7.83v-0.09c0-1.02-0.15-1.89-0.44-2.62c-0.29-0.73-0.74-1.29-1.34-1.69
		c-0.6-0.4-1.32-0.6-2.15-0.6c-0.8,0-1.5,0.2-2.08,0.6c-0.59,0.4-1.04,0.97-1.34,1.69c-0.31,0.73-0.46,1.6-0.46,2.62V72.64z"/>
	<path d="M249.47,87.14c-0.34,0-0.62-0.12-0.83-0.35c-0.22-0.23-0.32-0.5-0.32-0.81V64.21c0-0.31,0.11-0.58,0.32-0.81
		c0.22-0.23,0.49-0.35,0.83-0.35h5.33c0.34,0,0.63,0.12,0.86,0.35c0.23,0.23,0.35,0.5,0.35,0.81v1.85c0.8-0.96,1.78-1.7,2.94-2.22
		c1.16-0.52,2.46-0.79,3.91-0.79h2.04c0.34,0,0.62,0.11,0.83,0.32c0.22,0.22,0.32,0.49,0.32,0.83v4.77c0,0.31-0.11,0.58-0.32,0.81
		c-0.22,0.23-0.49,0.35-0.83,0.35h-4.49c-1.27,0-2.25,0.35-2.94,1.04c-0.69,0.69-1.04,1.68-1.04,2.94v11.86
		c0,0.31-0.12,0.58-0.35,0.81s-0.52,0.35-0.86,0.35H249.47z"/>
	<path d="M270.5,87.14c-0.34,0-0.62-0.12-0.83-0.35c-0.22-0.23-0.32-0.5-0.32-0.81V64.21c0-0.34,0.11-0.62,0.32-0.83
		c0.22-0.22,0.49-0.32,0.83-0.32h5.33c0.34,0,0.62,0.11,0.86,0.32c0.23,0.22,0.35,0.49,0.35,0.83v1.76c0.77-0.96,1.81-1.76,3.1-2.41
		c1.3-0.65,2.83-0.97,4.59-0.97c1.79,0,3.37,0.4,4.75,1.2c1.37,0.8,2.46,1.98,3.24,3.52c0.79,1.54,1.18,3.46,1.18,5.74v12.92
		c0,0.31-0.11,0.58-0.32,0.81s-0.49,0.35-0.83,0.35h-5.84c-0.31,0-0.58-0.12-0.81-0.35c-0.23-0.23-0.35-0.5-0.35-0.81V73.33
		c0-1.45-0.35-2.57-1.04-3.36c-0.69-0.79-1.72-1.18-3.08-1.18c-1.27,0-2.28,0.39-3.03,1.18c-0.76,0.79-1.14,1.91-1.14,3.36v12.65
		c0,0.31-0.12,0.58-0.35,0.81c-0.23,0.23-0.5,0.35-0.81,0.35H270.5z"/>
	<path d="M306.36,87.6c-1.67,0-3.16-0.32-4.47-0.95s-2.36-1.49-3.13-2.57c-0.77-1.08-1.16-2.3-1.16-3.66c0-2.19,0.9-3.93,2.69-5.21
		c1.79-1.28,4.17-2.15,7.13-2.62l5.79-0.88v-0.65c0-1.11-0.23-1.96-0.7-2.55c-0.46-0.59-1.31-0.88-2.55-0.88
		c-0.87,0-1.57,0.17-2.11,0.51c-0.54,0.34-0.97,0.8-1.27,1.39c-0.28,0.4-0.66,0.6-1.16,0.6h-5.19c-0.34,0-0.6-0.1-0.79-0.3
		c-0.19-0.2-0.26-0.44-0.23-0.72c0-0.56,0.21-1.2,0.62-1.92s1.06-1.44,1.92-2.15c0.86-0.71,1.98-1.3,3.33-1.76
		c1.36-0.46,3.01-0.69,4.96-0.69c1.98,0,3.67,0.23,5.1,0.69c1.42,0.46,2.58,1.11,3.47,1.95c0.9,0.83,1.55,1.81,1.97,2.94
		c0.42,1.13,0.62,2.37,0.62,3.73v14.08c0,0.31-0.12,0.58-0.35,0.81c-0.23,0.23-0.5,0.35-0.81,0.35h-5.37
		c-0.34,0-0.62-0.12-0.83-0.35c-0.22-0.23-0.32-0.5-0.32-0.81v-1.62c-0.4,0.59-0.94,1.13-1.62,1.62c-0.68,0.49-1.47,0.89-2.39,1.18
		S307.56,87.6,306.36,87.6z M308.53,82.32c0.89,0,1.71-0.19,2.43-0.58s1.3-0.99,1.71-1.81s0.63-1.85,0.63-3.08V76.2l-3.94,0.69
		c-1.45,0.25-2.51,0.63-3.17,1.14c-0.66,0.51-1,1.1-1,1.78c0,0.53,0.15,0.97,0.46,1.34c0.31,0.37,0.72,0.66,1.23,0.86
		C307.4,82.22,307.95,82.32,308.53,82.32z"/>
	<path d="M338.6,87.14c-1.98,0-3.68-0.32-5.12-0.95c-1.44-0.63-2.54-1.62-3.31-2.96c-0.77-1.34-1.16-3.08-1.16-5.21v-8.89h-3.61
		c-0.34,0-0.62-0.11-0.86-0.32c-0.23-0.22-0.35-0.49-0.35-0.83v-3.75c0-0.34,0.12-0.62,0.35-0.83c0.23-0.22,0.52-0.32,0.86-0.32
		h3.61V55.4c0-0.34,0.12-0.62,0.35-0.83c0.23-0.22,0.5-0.32,0.81-0.32h5.37c0.34,0,0.62,0.11,0.83,0.32
		c0.22,0.22,0.32,0.49,0.32,0.83v7.64h5.79c0.34,0,0.62,0.11,0.86,0.32c0.23,0.22,0.35,0.49,0.35,0.83v3.75
		c0,0.34-0.12,0.62-0.35,0.83c-0.23,0.22-0.52,0.32-0.86,0.32h-5.79v8.25c0,1.05,0.2,1.88,0.6,2.5c0.4,0.62,1.08,0.93,2.04,0.93
		h3.57c0.34,0,0.62,0.11,0.83,0.32c0.21,0.22,0.32,0.49,0.32,0.83v4.03c0,0.31-0.11,0.58-0.32,0.81c-0.22,0.23-0.5,0.35-0.83,0.35
		H338.6z"/>
	<path d="M349.02,59.57c-0.34,0-0.62-0.11-0.83-0.32c-0.22-0.22-0.32-0.49-0.32-0.83v-4.17c0-0.31,0.11-0.58,0.32-0.81
		s0.49-0.35,0.83-0.35h5.56c0.31,0,0.58,0.12,0.81,0.35s0.35,0.5,0.35,0.81v4.17c0,0.34-0.12,0.62-0.35,0.83
		c-0.23,0.22-0.5,0.32-0.81,0.32H349.02z M349.07,87.14c-0.34,0-0.62-0.12-0.83-0.35c-0.22-0.23-0.32-0.5-0.32-0.81V64.21
		c0-0.34,0.11-0.62,0.32-0.83c0.22-0.22,0.49-0.32,0.83-0.32h5.47c0.34,0,0.62,0.11,0.83,0.32c0.22,0.22,0.32,0.49,0.32,0.83v21.77
		c0,0.31-0.11,0.58-0.32,0.81s-0.49,0.35-0.83,0.35H349.07z"/>
	<path d="M372.55,87.6c-2.59,0-4.78-0.42-6.55-1.25c-1.78-0.83-3.13-2.03-4.08-3.59c-0.94-1.56-1.48-3.42-1.6-5.58
		c-0.03-0.62-0.05-1.32-0.05-2.11c0-0.79,0.02-1.47,0.05-2.06c0.12-2.19,0.68-4.06,1.67-5.61c0.99-1.54,2.37-2.73,4.15-3.57
		c1.78-0.83,3.92-1.25,6.42-1.25c2.53,0,4.69,0.42,6.46,1.25c1.78,0.83,3.16,2.02,4.15,3.57c0.99,1.54,1.54,3.41,1.67,5.61
		c0.03,0.59,0.05,1.27,0.05,2.06c0,0.79-0.02,1.49-0.05,2.11c-0.12,2.16-0.66,4.02-1.6,5.58c-0.94,1.56-2.3,2.76-4.08,3.59
		C377.38,87.18,375.18,87.6,372.55,87.6z M372.55,81.95c1.39,0,2.4-0.42,3.03-1.25s1-2.08,1.09-3.75c0.03-0.46,0.05-1.08,0.05-1.85
		c0-0.77-0.02-1.39-0.05-1.85c-0.09-1.64-0.46-2.88-1.09-3.73c-0.63-0.85-1.64-1.27-3.03-1.27c-1.33,0-2.32,0.42-2.99,1.27
		c-0.67,0.85-1.03,2.09-1.09,3.73c-0.03,0.46-0.05,1.08-0.05,1.85c0,0.77,0.02,1.39,0.05,1.85c0.06,1.67,0.42,2.92,1.09,3.75
		C370.23,81.53,371.23,81.95,372.55,81.95z"/>
	<path d="M390.62,87.14c-0.34,0-0.62-0.12-0.83-0.35c-0.22-0.23-0.32-0.5-0.32-0.81V64.21c0-0.34,0.11-0.62,0.32-0.83
		c0.22-0.22,0.49-0.32,0.83-0.32h5.33c0.34,0,0.62,0.11,0.86,0.32c0.23,0.22,0.35,0.49,0.35,0.83v1.76c0.77-0.96,1.81-1.76,3.1-2.41
		c1.3-0.65,2.83-0.97,4.59-0.97c1.79,0,3.37,0.4,4.75,1.2c1.37,0.8,2.46,1.98,3.24,3.52c0.79,1.54,1.18,3.46,1.18,5.74v12.92
		c0,0.31-0.11,0.58-0.32,0.81s-0.49,0.35-0.83,0.35h-5.84c-0.31,0-0.58-0.12-0.81-0.35c-0.23-0.23-0.35-0.5-0.35-0.81V73.33
		c0-1.45-0.35-2.57-1.04-3.36c-0.69-0.79-1.72-1.18-3.08-1.18c-1.27,0-2.28,0.39-3.03,1.18c-0.76,0.79-1.14,1.91-1.14,3.36v12.65
		c0,0.31-0.12,0.58-0.35,0.81c-0.23,0.23-0.5,0.35-0.81,0.35H390.62z"/>
	<path d="M426.48,87.6c-1.67,0-3.16-0.32-4.47-0.95s-2.36-1.49-3.13-2.57c-0.77-1.08-1.16-2.3-1.16-3.66c0-2.19,0.9-3.93,2.69-5.21
		c1.79-1.28,4.17-2.15,7.13-2.62l5.79-0.88v-0.65c0-1.11-0.23-1.96-0.7-2.55c-0.46-0.59-1.31-0.88-2.55-0.88
		c-0.87,0-1.57,0.17-2.11,0.51c-0.54,0.34-0.97,0.8-1.27,1.39c-0.28,0.4-0.66,0.6-1.16,0.6h-5.19c-0.34,0-0.6-0.1-0.79-0.3
		c-0.19-0.2-0.26-0.44-0.23-0.72c0-0.56,0.21-1.2,0.62-1.92s1.06-1.44,1.92-2.15c0.86-0.71,1.98-1.3,3.33-1.76
		c1.36-0.46,3.01-0.69,4.96-0.69c1.98,0,3.67,0.23,5.1,0.69c1.42,0.46,2.58,1.11,3.47,1.95c0.9,0.83,1.55,1.81,1.97,2.94
		c0.42,1.13,0.62,2.37,0.62,3.73v14.08c0,0.31-0.12,0.58-0.35,0.81c-0.23,0.23-0.5,0.35-0.81,0.35h-5.37
		c-0.34,0-0.62-0.12-0.83-0.35c-0.22-0.23-0.32-0.5-0.32-0.81v-1.62c-0.4,0.59-0.94,1.13-1.62,1.62c-0.68,0.49-1.47,0.89-2.39,1.18
		S427.68,87.6,426.48,87.6z M428.66,82.32c0.89,0,1.71-0.19,2.43-0.58s1.3-0.99,1.71-1.81s0.63-1.85,0.63-3.08V76.2l-3.94,0.69
		c-1.45,0.25-2.51,0.63-3.17,1.14c-0.66,0.51-1,1.1-1,1.78c0,0.53,0.15,0.97,0.46,1.34c0.31,0.37,0.72,0.66,1.23,0.86
		C427.52,82.22,428.07,82.32,428.66,82.32z"/>
	<path d="M447.74,87.14c-0.34,0-0.62-0.12-0.83-0.35c-0.22-0.23-0.32-0.5-0.32-0.81V55.4c0-0.34,0.11-0.62,0.32-0.83
		c0.22-0.22,0.49-0.32,0.83-0.32h5.47c0.34,0,0.62,0.11,0.83,0.32c0.22,0.22,0.32,0.49,0.32,0.83v30.57c0,0.31-0.11,0.58-0.32,0.81
		s-0.49,0.35-0.83,0.35H447.74z"/>
	<path d="M156.26,136.31c-0.34,0-0.62-0.12-0.83-0.35c-0.22-0.23-0.32-0.5-0.32-0.81v-30.11c0-0.34,0.11-0.62,0.32-0.83
		c0.22-0.22,0.49-0.32,0.83-0.32h14.13c2.66,0,4.83,0.37,6.53,1.11c1.7,0.74,2.96,1.8,3.78,3.17c0.82,1.37,1.23,3,1.23,4.89
		c0,1.11-0.21,2.09-0.62,2.94c-0.42,0.85-0.93,1.55-1.53,2.11c-0.6,0.56-1.17,0.96-1.69,1.21c1.17,0.56,2.22,1.47,3.13,2.73
		c0.91,1.27,1.37,2.75,1.37,4.45c0,2.04-0.46,3.79-1.37,5.26c-0.91,1.47-2.24,2.59-3.98,3.38c-1.75,0.79-3.88,1.18-6.42,1.18H156.26
		z M163.44,116.77h6.02c1.27,0,2.22-0.33,2.85-1c0.63-0.66,0.95-1.49,0.95-2.48s-0.32-1.8-0.95-2.43c-0.63-0.63-1.58-0.95-2.85-0.95
		h-6.02V116.77z M163.44,130.29h6.44c1.33,0,2.33-0.39,3.01-1.16c0.68-0.77,1.02-1.65,1.02-2.64c0-1.08-0.35-1.99-1.04-2.73
		c-0.7-0.74-1.69-1.11-2.99-1.11h-6.44V130.29z"/>
	<path d="M196.06,136.78c-1.76,0-3.33-0.4-4.7-1.2c-1.37-0.8-2.45-1.98-3.22-3.54c-0.77-1.56-1.16-3.47-1.16-5.72v-12.92
		c0-0.34,0.11-0.62,0.32-0.83c0.22-0.22,0.49-0.32,0.83-0.32h5.79c0.34,0,0.63,0.11,0.86,0.32c0.23,0.22,0.35,0.49,0.35,0.83v12.65
		c0,3.03,1.34,4.54,4.03,4.54c1.27,0,2.28-0.39,3.03-1.18c0.76-0.79,1.14-1.91,1.14-3.36v-12.65c0-0.34,0.11-0.62,0.32-0.83
		c0.22-0.22,0.49-0.32,0.83-0.32h5.79c0.34,0,0.62,0.11,0.83,0.32c0.22,0.22,0.32,0.49,0.32,0.83v21.77c0,0.31-0.11,0.58-0.32,0.81
		c-0.22,0.23-0.49,0.35-0.83,0.35h-5.37c-0.31,0-0.58-0.12-0.81-0.35c-0.23-0.23-0.35-0.5-0.35-0.81v-1.76
		c-0.8,1.11-1.85,1.95-3.13,2.53C199.34,136.49,197.82,136.78,196.06,136.78z"/>
	<path d="M226.81,136.78c-2.01,0-3.71-0.22-5.12-0.67c-1.41-0.45-2.55-1-3.43-1.64c-0.88-0.65-1.54-1.32-1.97-2.02
		c-0.43-0.7-0.66-1.3-0.69-1.83c-0.03-0.34,0.08-0.62,0.32-0.83c0.25-0.22,0.51-0.32,0.79-0.32H222c0.09,0,0.18,0.02,0.25,0.05
		c0.08,0.03,0.16,0.09,0.25,0.18c0.4,0.22,0.8,0.49,1.2,0.81c0.4,0.32,0.86,0.61,1.39,0.86c0.52,0.25,1.16,0.37,1.9,0.37
		c0.86,0,1.59-0.18,2.18-0.53c0.59-0.35,0.88-0.86,0.88-1.51c0-0.49-0.14-0.9-0.42-1.23s-0.84-0.64-1.69-0.95
		c-0.85-0.31-2.12-0.62-3.82-0.93c-1.61-0.37-3.01-0.86-4.22-1.46c-1.2-0.6-2.13-1.39-2.78-2.36c-0.65-0.97-0.97-2.15-0.97-3.54
		c0-1.24,0.4-2.42,1.2-3.57c0.8-1.14,1.98-2.08,3.52-2.8c1.54-0.73,3.46-1.09,5.74-1.09c1.76,0,3.3,0.21,4.63,0.63
		c1.33,0.42,2.44,0.95,3.34,1.6c0.9,0.65,1.57,1.31,2.04,1.99c0.46,0.68,0.71,1.3,0.74,1.85c0.03,0.31-0.06,0.58-0.28,0.81
		c-0.22,0.23-0.46,0.35-0.74,0.35h-4.82c-0.12,0-0.25-0.02-0.37-0.07c-0.12-0.05-0.23-0.1-0.32-0.16c-0.37-0.18-0.74-0.43-1.11-0.74
		c-0.37-0.31-0.8-0.59-1.3-0.83c-0.49-0.25-1.11-0.37-1.85-0.37c-0.83,0-1.48,0.19-1.95,0.56c-0.46,0.37-0.7,0.85-0.7,1.44
		c0,0.4,0.13,0.77,0.39,1.11c0.26,0.34,0.8,0.65,1.62,0.93c0.82,0.28,2.09,0.59,3.82,0.93c2.13,0.34,3.83,0.89,5.1,1.64
		c1.27,0.76,2.17,1.64,2.71,2.64c0.54,1,0.81,2.06,0.81,3.17c0,1.48-0.45,2.8-1.34,3.94c-0.9,1.14-2.2,2.03-3.91,2.66
		S229.32,136.78,226.81,136.78z"/>
	<path d="M243.63,108.75c-0.34,0-0.62-0.11-0.83-0.32c-0.22-0.22-0.32-0.49-0.32-0.83v-4.17c0-0.31,0.11-0.58,0.32-0.81
		c0.22-0.23,0.49-0.35,0.83-0.35h5.56c0.31,0,0.58,0.12,0.81,0.35c0.23,0.23,0.35,0.5,0.35,0.81v4.17c0,0.34-0.12,0.62-0.35,0.83
		c-0.23,0.22-0.5,0.32-0.81,0.32H243.63z M243.68,136.31c-0.34,0-0.62-0.12-0.83-0.35c-0.22-0.23-0.32-0.5-0.32-0.81v-21.77
		c0-0.34,0.11-0.62,0.32-0.83c0.22-0.22,0.49-0.32,0.83-0.32h5.47c0.34,0,0.62,0.11,0.83,0.32c0.22,0.22,0.32,0.49,0.32,0.83v21.77
		c0,0.31-0.11,0.58-0.32,0.81c-0.22,0.23-0.49,0.35-0.83,0.35H243.68z"/>
	<path d="M256.93,136.31c-0.34,0-0.62-0.12-0.83-0.35c-0.22-0.23-0.32-0.5-0.32-0.81v-21.77c0-0.34,0.11-0.62,0.32-0.83
		c0.22-0.22,0.49-0.32,0.83-0.32h5.33c0.34,0,0.63,0.11,0.86,0.32c0.23,0.22,0.35,0.49,0.35,0.83v1.76c0.77-0.96,1.81-1.76,3.1-2.41
		c1.3-0.65,2.83-0.97,4.59-0.97c1.79,0,3.37,0.4,4.75,1.21s2.46,1.98,3.24,3.52c0.79,1.54,1.18,3.46,1.18,5.74v12.92
		c0,0.31-0.11,0.58-0.32,0.81s-0.49,0.35-0.83,0.35h-5.84c-0.31,0-0.58-0.12-0.81-0.35c-0.23-0.23-0.35-0.5-0.35-0.81v-12.65
		c0-1.45-0.35-2.57-1.04-3.36c-0.69-0.79-1.72-1.18-3.08-1.18c-1.27,0-2.28,0.39-3.03,1.18c-0.76,0.79-1.14,1.91-1.14,3.36v12.65
		c0,0.31-0.12,0.58-0.35,0.81s-0.5,0.35-0.81,0.35H256.93z"/>
	<path d="M296.67,136.78c-3.64,0-6.55-0.99-8.71-2.96c-2.16-1.98-3.29-4.91-3.38-8.8c0-0.22,0-0.49,0-0.83c0-0.34,0-0.6,0-0.79
		c0.09-2.44,0.64-4.53,1.64-6.28c1-1.74,2.39-3.07,4.17-3.98c1.78-0.91,3.85-1.37,6.23-1.37c2.72,0,4.96,0.54,6.74,1.62
		s3.11,2.55,4.01,4.4c0.9,1.85,1.34,3.97,1.34,6.35v1.11c0,0.34-0.11,0.62-0.32,0.83c-0.22,0.22-0.49,0.32-0.83,0.32h-14.82
		c0,0.03,0,0.08,0,0.14c0,0.06,0,0.12,0,0.19c0.03,0.9,0.19,1.71,0.49,2.46c0.29,0.74,0.72,1.33,1.3,1.76
		c0.57,0.43,1.27,0.65,2.11,0.65c0.62,0,1.13-0.1,1.55-0.3c0.42-0.2,0.76-0.43,1.04-0.69c0.28-0.26,0.49-0.49,0.65-0.67
		c0.28-0.34,0.5-0.55,0.67-0.63c0.17-0.08,0.44-0.12,0.81-0.12h5.74c0.31,0,0.56,0.09,0.76,0.28c0.2,0.19,0.29,0.43,0.25,0.74
		c-0.03,0.53-0.29,1.16-0.79,1.9s-1.21,1.48-2.15,2.2c-0.94,0.73-2.12,1.32-3.54,1.78C300.21,136.55,298.56,136.78,296.67,136.78z
		 M292.74,121.81h7.83v-0.09c0-1.02-0.15-1.89-0.44-2.62c-0.29-0.73-0.74-1.29-1.34-1.69s-1.32-0.6-2.15-0.6
		c-0.8,0-1.5,0.2-2.08,0.6c-0.59,0.4-1.04,0.96-1.34,1.69c-0.31,0.73-0.46,1.6-0.46,2.62V121.81z"/>
	<path d="M322.99,136.78c-2.01,0-3.71-0.22-5.12-0.67c-1.41-0.45-2.55-1-3.43-1.64c-0.88-0.65-1.54-1.32-1.97-2.02
		s-0.66-1.3-0.69-1.83c-0.03-0.34,0.08-0.62,0.32-0.83c0.25-0.22,0.51-0.32,0.79-0.32h5.28c0.09,0,0.18,0.02,0.25,0.05
		c0.08,0.03,0.16,0.09,0.25,0.18c0.4,0.22,0.8,0.49,1.2,0.81s0.86,0.61,1.39,0.86c0.53,0.25,1.16,0.37,1.9,0.37
		c0.86,0,1.59-0.18,2.18-0.53c0.59-0.35,0.88-0.86,0.88-1.51c0-0.49-0.14-0.9-0.42-1.23s-0.84-0.64-1.69-0.95
		c-0.85-0.31-2.12-0.62-3.82-0.93c-1.61-0.37-3.01-0.86-4.22-1.46c-1.2-0.6-2.13-1.39-2.78-2.36c-0.65-0.97-0.97-2.15-0.97-3.54
		c0-1.24,0.4-2.42,1.2-3.57c0.8-1.14,1.98-2.08,3.52-2.8c1.54-0.73,3.46-1.09,5.75-1.09c1.76,0,3.3,0.21,4.63,0.63
		s2.44,0.95,3.34,1.6c0.9,0.65,1.58,1.31,2.04,1.99c0.46,0.68,0.71,1.3,0.74,1.85c0.03,0.31-0.06,0.58-0.28,0.81
		s-0.46,0.35-0.74,0.35h-4.82c-0.12,0-0.25-0.02-0.37-0.07c-0.12-0.05-0.23-0.1-0.32-0.16c-0.37-0.18-0.74-0.43-1.11-0.74
		c-0.37-0.31-0.8-0.59-1.3-0.83c-0.5-0.25-1.11-0.37-1.85-0.37c-0.83,0-1.48,0.19-1.95,0.56c-0.46,0.37-0.7,0.85-0.7,1.44
		c0,0.4,0.13,0.77,0.39,1.11c0.26,0.34,0.8,0.65,1.62,0.93c0.82,0.28,2.09,0.59,3.82,0.93c2.13,0.34,3.83,0.89,5.1,1.64
		s2.17,1.64,2.71,2.64s0.81,2.06,0.81,3.17c0,1.48-0.45,2.8-1.34,3.94c-0.9,1.14-2.2,2.03-3.91,2.66
		C327.6,136.46,325.49,136.78,322.99,136.78z"/>
	<path d="M348.6,136.78c-2.01,0-3.71-0.22-5.12-0.67c-1.41-0.45-2.55-1-3.43-1.64c-0.88-0.65-1.54-1.32-1.97-2.02
		s-0.66-1.3-0.69-1.83c-0.03-0.34,0.08-0.62,0.32-0.83c0.25-0.22,0.51-0.32,0.79-0.32h5.28c0.09,0,0.18,0.02,0.25,0.05
		c0.08,0.03,0.16,0.09,0.25,0.18c0.4,0.22,0.8,0.49,1.2,0.81s0.86,0.61,1.39,0.86c0.53,0.25,1.16,0.37,1.9,0.37
		c0.86,0,1.59-0.18,2.18-0.53c0.59-0.35,0.88-0.86,0.88-1.51c0-0.49-0.14-0.9-0.42-1.23s-0.84-0.64-1.69-0.95
		c-0.85-0.31-2.12-0.62-3.82-0.93c-1.61-0.37-3.01-0.86-4.22-1.46c-1.2-0.6-2.13-1.39-2.78-2.36c-0.65-0.97-0.97-2.15-0.97-3.54
		c0-1.24,0.4-2.42,1.2-3.57c0.8-1.14,1.98-2.08,3.52-2.8c1.54-0.73,3.46-1.09,5.75-1.09c1.76,0,3.3,0.21,4.63,0.63
		s2.44,0.95,3.34,1.6c0.9,0.65,1.58,1.31,2.04,1.99c0.46,0.68,0.71,1.3,0.74,1.85c0.03,0.31-0.06,0.58-0.28,0.81
		s-0.46,0.35-0.74,0.35h-4.82c-0.12,0-0.25-0.02-0.37-0.07c-0.12-0.05-0.23-0.1-0.32-0.16c-0.37-0.18-0.74-0.43-1.11-0.74
		c-0.37-0.31-0.8-0.59-1.3-0.83c-0.5-0.25-1.11-0.37-1.85-0.37c-0.83,0-1.48,0.19-1.95,0.56c-0.46,0.37-0.7,0.85-0.7,1.44
		c0,0.4,0.13,0.77,0.39,1.11c0.26,0.34,0.8,0.65,1.62,0.93c0.82,0.28,2.09,0.59,3.82,0.93c2.13,0.34,3.83,0.89,5.1,1.64
		s2.17,1.64,2.71,2.64s0.81,2.06,0.81,3.17c0,1.48-0.45,2.8-1.34,3.94c-0.9,1.14-2.2,2.03-3.91,2.66
		C353.21,136.46,351.11,136.78,348.6,136.78z"/>
</g>
<g>
	<g>
		<g>
			<path class="st0" d="M61.03,38.49c-3.9,0.37-4.94,1.52-5.18,3.72c-0.18,1.83-0.3,3.9-0.3,8.17v7.98c0,5.24-0.85,10.54-4.33,14.2
				c-2.8,2.93-7.13,4.2-11.46,4.2c-4.02,0-8.04-0.85-10.91-3.17c-3.53-2.68-5.24-6.4-5.24-13.22V44.95c0-5.61-0.55-6.03-5.18-6.46
				v-2.25h18.83v2.25c-4.57,0.43-5.12,0.85-5.12,6.46v16.21c0,6.83,3.35,11.34,9.87,11.34c7.25,0,10.42-5.36,10.42-14.5v-7.62
				c0-4.21-0.18-6.4-0.3-8.23c-0.24-2.8-1.95-3.41-6.22-3.66v-2.25h15.11V38.49z"/>
			<path class="st0" d="M64.07,75.85V73.6c4.63-0.43,5.18-0.79,5.18-5.91V44.47c0-5.12-0.61-5.61-5.18-5.97v-2.25H82.9v2.25
				c-4.57,0.43-5.18,0.85-5.18,5.97v23.22c0,5.06,0.55,5.42,5.18,5.91v2.25H64.07z"/>
			<path class="st0" d="M111.66,54.03c6.4,1.16,10.91,4.2,10.91,9.99c0,3.78-2.38,7.31-5.85,9.26c-3.11,1.71-7.07,2.56-11.58,2.56
				H88.08V73.6c4.69-0.49,5.18-0.79,5.18-5.91V44.47c0-5.12-0.79-5.67-5.12-5.97v-2.25h18.53c4.63,0,7.56,0.61,9.99,2.13
				c2.25,1.46,3.72,3.78,3.72,6.76C120.38,50.19,115.63,53.24,111.66,54.03z M103.92,53.24c5.79,0,7.92-2.5,7.92-7.01
				c0-5.3-3.47-7.31-6.83-7.31c-1.46,0-2.38,0.18-2.86,0.49c-0.67,0.43-0.61,0.98-0.61,2.25v11.58H103.92z M101.55,67.56
				c0,4.39,2.01,5.73,5.3,5.67c3.35-0.06,6.64-2.99,6.64-8.65c0-5.91-2.99-8.71-9.81-8.71h-2.13V67.56z"/>
		</g>
		<g>
			<path class="st0" d="M36.54,88.12c-0.67-2.13-1.6-4.56-4.66-4.56c-1.93,0-3.19,1.36-3.19,3.23c0,1.83,1.23,2.93,4.16,4.39
				c3.56,1.76,5.82,3.49,5.82,6.79c0,3.93-3.26,6.79-8.02,6.79c-2.13,0-4.03-0.57-5.59-1.03c-0.2-0.77-0.77-4.23-1-5.79l1.3-0.3
				c0.67,2.1,2.53,5.72,5.79,5.72c2.03,0,3.26-1.26,3.26-3.39c0-1.93-1.2-3.06-3.99-4.56c-3.46-1.86-5.72-3.53-5.72-6.99
				c0-3.49,2.73-6.26,7.72-6.26c2.3,0,4.03,0.5,4.76,0.6c0.13,1.23,0.37,2.96,0.63,5.06L36.54,88.12z"/>
			<path class="st0" d="M71.91,83.87c-2.4,0.3-2.83,0.8-3.76,3.53c-0.87,2.56-3.36,10.45-5.46,17.24h-1.86
				c-1.7-4.79-3.59-9.72-5.49-14.71c-1.73,5.02-3.39,9.88-4.96,14.71h-1.93c-1.33-4.69-3.46-11.58-5.32-17.47
				c-0.83-2.53-1.33-3.09-3.36-3.29v-1.23h10.05v1.23c-2.5,0.23-2.56,0.73-2.1,2.46c1.1,3.83,2.26,7.72,3.36,11.35
				c1.7-4.69,3.29-9.72,4.82-14.87h1.76c1.83,5.09,3.73,10.05,5.56,14.91c1.23-3.59,2.83-9.15,3.29-11.05
				c0.47-1.96,0.13-2.56-2.73-2.8v-1.23h8.12V83.87z"/>
			<path class="st0" d="M72.81,104.26v-1.23c2.53-0.23,2.83-0.43,2.83-3.23V87.13c0-2.8-0.33-3.06-2.83-3.26v-1.23h10.28v1.23
				c-2.5,0.23-2.83,0.47-2.83,3.26V99.8c0,2.76,0.3,2.96,2.83,3.23v1.23H72.81z"/>
			<path class="st0" d="M98.19,88.12c-0.67-2.13-1.6-4.56-4.66-4.56c-1.93,0-3.19,1.36-3.19,3.23c0,1.83,1.23,2.93,4.16,4.39
				c3.56,1.76,5.82,3.49,5.82,6.79c0,3.93-3.26,6.79-8.02,6.79c-2.13,0-4.03-0.57-5.59-1.03c-0.2-0.77-0.77-4.23-1-5.79l1.3-0.3
				c0.67,2.1,2.53,5.72,5.79,5.72c2.03,0,3.26-1.26,3.26-3.39c0-1.93-1.2-3.06-3.99-4.56c-3.46-1.86-5.72-3.53-5.72-6.99
				c0-3.49,2.73-6.26,7.72-6.26c2.3,0,4.03,0.5,4.76,0.6c0.13,1.23,0.37,2.96,0.63,5.06L98.19,88.12z"/>
			<path class="st0" d="M115.39,88.12c-0.67-2.13-1.6-4.56-4.66-4.56c-1.93,0-3.19,1.36-3.19,3.23c0,1.83,1.23,2.93,4.16,4.39
				c3.56,1.76,5.82,3.49,5.82,6.79c0,3.93-3.26,6.79-8.02,6.79c-2.13,0-4.03-0.57-5.59-1.03c-0.2-0.77-0.77-4.23-1-5.79l1.3-0.3
				c0.67,2.1,2.53,5.72,5.79,5.72c2.03,0,3.26-1.26,3.26-3.39c0-1.93-1.2-3.06-3.99-4.56c-3.46-1.86-5.72-3.53-5.72-6.99
				c0-3.49,2.73-6.26,7.72-6.26c2.3,0,4.03,0.5,4.76,0.6c0.13,1.23,0.37,2.96,0.63,5.06L115.39,88.12z"/>
		</g>
	</g>
	<g>
		<path class="st0" d="M141,141H0V0h141V141z M8.46,132.54h124.09V8.46H8.46V132.54z"/>
	</g>
</g>
</svg>
