<?xml version="1.0" encoding="utf-8"?>
<!-- Generator: Adobe Illustrator 27.6.1, SVG Export Plug-In . SVG Version: 6.00 Build 0)  -->
<svg version="1.1" id="Layer_1" xmlns="http://www.w3.org/2000/svg" xmlns:xlink="http://www.w3.org/1999/xlink" x="0px" y="0px"
	 viewBox="0 0 304.12 304.12" style="enable-background:new 0 0 304.12 304.12;" xml:space="preserve">
<style type="text/css">
	.st0{fill:#E24F3A;}
</style>
<g>
	<g>
		<path class="st0" d="M304.12,304.12H0V0h304.12V304.12z M11.06,293.06h282.01V11.06H11.06V293.06z"/>
	</g>
</g>
<g>
	<g>
		<path class="st0" d="M130.45,79.05c-8.9,0.83-11.26,3.48-11.82,8.48c-0.42,4.17-0.7,8.9-0.7,18.63v18.21
			c0,11.95-1.95,24.05-9.87,32.39c-6.39,6.67-16.26,9.59-26.13,9.59c-9.17,0-18.35-1.95-24.88-7.23
			c-8.06-6.12-11.95-14.6-11.95-30.17V93.79c0-12.79-1.25-13.76-11.82-14.73v-5.14h42.95v5.14C65.81,80.02,64.56,81,64.56,93.79
			v36.98c0,15.57,7.65,25.86,22.52,25.86c16.54,0,23.77-12.23,23.77-33.08v-17.38c0-9.59-0.42-14.6-0.69-18.77
			c-0.56-6.39-4.45-7.78-14.18-8.34v-5.14h34.47V79.05z"/>
		<path class="st0" d="M137.39,164.26v-5.14c10.56-0.97,11.82-1.81,11.82-13.48V92.67c0-11.68-1.39-12.79-11.82-13.62v-5.14h42.95
			v5.14c-10.43,0.97-11.82,1.95-11.82,13.62v52.96c0,11.54,1.25,12.37,11.82,13.48v5.14H137.39z"/>
		<path class="st0" d="M245.96,114.5c14.6,2.64,24.88,9.59,24.88,22.8c0,8.62-5.42,16.68-13.34,21.13
			c-7.09,3.89-16.12,5.84-26.41,5.84h-38.92v-5.14c10.7-1.11,11.82-1.81,11.82-13.48V92.67c0-11.68-1.81-12.93-11.68-13.62v-5.14
			h42.26c10.56,0,17.24,1.39,22.8,4.87c5.14,3.34,8.48,8.62,8.48,15.43C265.83,105.74,254.99,112.69,245.96,114.5z M228.3,112.69
			c13.21,0,18.07-5.7,18.07-15.99c0-12.09-7.92-16.68-15.57-16.68c-3.34,0-5.42,0.42-6.53,1.11c-1.53,0.97-1.39,2.22-1.39,5.14
			v26.41H228.3z M222.88,145.36c0,10.01,4.59,13.07,12.09,12.93c7.65-0.14,15.15-6.81,15.15-19.74c0-13.48-6.81-19.88-22.38-19.88
			h-4.87V145.36z"/>
	</g>
	<g>
		<path class="st0" d="M74.59,192.26c-1.52-4.86-3.64-10.4-10.63-10.4c-4.4,0-7.29,3.11-7.29,7.36c0,4.17,2.81,6.68,9.49,10.02
			c8.12,4.02,13.28,7.97,13.28,15.48c0,8.96-7.44,15.48-18.29,15.48c-4.86,0-9.18-1.29-12.75-2.35c-0.46-1.75-1.75-9.64-2.28-13.21
			l2.96-0.68c1.52,4.78,5.77,13.05,13.21,13.05c4.63,0,7.44-2.88,7.44-7.74c0-4.4-2.73-6.98-9.11-10.4
			c-7.89-4.25-13.05-8.05-13.05-15.94c0-7.97,6.22-14.27,17.61-14.27c5.24,0,9.18,1.14,10.85,1.37c0.3,2.81,0.83,6.75,1.44,11.54
			L74.59,192.26z"/>
		<path class="st0" d="M155.27,182.55c-5.46,0.68-6.45,1.82-8.58,8.04c-1.97,5.84-7.67,23.83-12.45,39.31H130
			c-3.87-10.93-8.2-22.16-12.52-33.55c-3.95,11.46-7.74,22.54-11.31,33.55h-4.4c-3.04-10.7-7.89-26.41-12.14-39.85
			c-1.9-5.77-3.04-7.06-7.67-7.51v-2.81h22.92v2.81c-5.69,0.53-5.84,1.67-4.78,5.62c2.5,8.73,5.16,17.61,7.67,25.88
			c3.87-10.7,7.51-22.16,11.01-33.93h4.02c4.17,11.61,8.5,22.92,12.67,34c2.81-8.2,6.45-20.87,7.51-25.2
			c1.06-4.48,0.3-5.84-6.22-6.38v-2.81h18.52V182.55z"/>
		<path class="st0" d="M157.32,229.07v-2.81c5.77-0.53,6.45-0.99,6.45-7.36v-28.92c0-6.38-0.76-6.98-6.45-7.44v-2.81h23.45v2.81
			c-5.69,0.53-6.45,1.06-6.45,7.44v28.92c0,6.3,0.68,6.75,6.45,7.36v2.81H157.32z"/>
		<path class="st0" d="M215.23,192.26c-1.52-4.86-3.64-10.4-10.63-10.4c-4.4,0-7.29,3.11-7.29,7.36c0,4.17,2.81,6.68,9.49,10.02
			c8.12,4.02,13.28,7.97,13.28,15.48c0,8.96-7.44,15.48-18.29,15.48c-4.86,0-9.18-1.29-12.75-2.35c-0.46-1.75-1.75-9.64-2.28-13.21
			l2.96-0.68c1.52,4.78,5.77,13.05,13.21,13.05c4.63,0,7.44-2.88,7.44-7.74c0-4.4-2.73-6.98-9.11-10.4
			c-7.89-4.25-13.05-8.05-13.05-15.94c0-7.97,6.22-14.27,17.61-14.27c5.24,0,9.18,1.14,10.85,1.37c0.3,2.81,0.83,6.75,1.44,11.54
			L215.23,192.26z"/>
		<path class="st0" d="M254.46,192.26c-1.52-4.86-3.64-10.4-10.63-10.4c-4.4,0-7.29,3.11-7.29,7.36c0,4.17,2.81,6.68,9.49,10.02
			c8.12,4.02,13.28,7.97,13.28,15.48c0,8.96-7.44,15.48-18.29,15.48c-4.86,0-9.18-1.29-12.75-2.35c-0.46-1.75-1.75-9.64-2.28-13.21
			l2.96-0.68c1.52,4.78,5.77,13.05,13.21,13.05c4.63,0,7.44-2.88,7.44-7.74c0-4.4-2.73-6.98-9.11-10.4
			c-7.89-4.25-13.05-8.05-13.05-15.94c0-7.97,6.22-14.27,17.61-14.27c5.24,0,9.18,1.14,10.85,1.37c0.3,2.81,0.83,6.75,1.44,11.54
			L254.46,192.26z"/>
	</g>
</g>
</svg>
