<?xml version="1.0" encoding="utf-8"?>
<!-- Generator: Adobe Illustrator 27.6.1, SVG Export Plug-In . SVG Version: 6.00 Build 0)  -->
<svg version="1.1" id="Layer_1" xmlns="http://www.w3.org/2000/svg" xmlns:xlink="http://www.w3.org/1999/xlink" x="0px" y="0px"
	 viewBox="0 0 477.81 141" style="enable-background:new 0 0 477.81 141;" xml:space="preserve">
<style type="text/css">
	.st0{fill:#E24F3A;}
	.st1{fill:#E14F39;}
	.st2{fill:#E2503A;}
</style>
<g>
	<g>
		<path class="st0" d="M141,141H0V0h141V141z M5.13,135.87h130.75V5.13H5.13V135.87z"/>
	</g>
	<g>
		<g>
			<g>
				<path class="st1" d="M31.33,103c0.2,0.89,0.47,1.59,0.82,2.1c0.34,0.51,0.79,0.89,1.33,1.14c0.54,0.25,1.24,0.37,2.1,0.37
					c1.18,0,2.08-0.31,2.71-0.92s0.94-1.51,0.94-2.69c0-0.76-0.13-1.39-0.39-1.9c-0.26-0.51-0.69-1-1.28-1.45
					c-0.59-0.45-1.5-0.98-2.72-1.59c-1.18-0.58-2.11-1.16-2.79-1.71c-0.69-0.56-1.2-1.17-1.53-1.82c-0.34-0.65-0.51-1.37-0.51-2.14
					c0-1.13,0.26-2.11,0.79-2.94c0.53-0.83,1.3-1.47,2.33-1.92c1.02-0.45,2.19-0.68,3.51-0.68c0.77,0,1.51,0.04,2.24,0.12
					c0.73,0.08,1.64,0.26,2.74,0.54v4.08h-1.49c-0.23-0.89-0.52-1.58-0.88-2.07c-0.35-0.49-0.76-0.84-1.24-1.03
					c-0.47-0.2-1.09-0.29-1.84-0.29c-0.65,0-1.24,0.12-1.76,0.36c-0.52,0.24-0.93,0.61-1.23,1.09c-0.3,0.49-0.45,1.07-0.45,1.74
					c0,0.71,0.13,1.32,0.38,1.81c0.26,0.49,0.66,0.95,1.2,1.37c0.54,0.42,1.35,0.9,2.42,1.42c1.29,0.64,2.29,1.24,3,1.8
					c0.71,0.55,1.26,1.19,1.66,1.89c0.4,0.71,0.6,1.54,0.6,2.48c0,1.06-0.17,1.95-0.5,2.68c-0.33,0.73-0.79,1.32-1.38,1.78
					c-0.59,0.46-1.29,0.79-2.11,1c-0.82,0.21-1.72,0.31-2.7,0.31c-1.58,0-3.4-0.27-5.47-0.8V103H31.33z"/>
				<path class="st1" d="M57.68,90.93l-4.83,16.87H50.4l-4.39-16.4c-0.18-0.68-0.35-1.24-0.5-1.68c-0.15-0.43-0.3-0.77-0.45-1.02
					c-0.15-0.25-0.31-0.43-0.49-0.56c-0.18-0.13-0.43-0.23-0.76-0.32v-0.74h6.46v0.74c-0.62,0.12-1.06,0.3-1.31,0.54
					c-0.25,0.24-0.37,0.58-0.37,1.01c0,0.35,0.04,0.77,0.14,1.25s0.22,1.03,0.38,1.65l3.04,11.93L57,87.08h2.54l3.94,17.14
					l3.56-11.52c0.43-1.4,0.65-2.4,0.65-2.99c0-0.61-0.13-1.06-0.39-1.33c-0.26-0.27-0.68-0.46-1.28-0.56v-0.74h5.95v0.74
					c-0.3,0.1-0.54,0.21-0.73,0.34c-0.18,0.13-0.35,0.3-0.52,0.51s-0.35,0.55-0.54,1c-0.2,0.45-0.43,1.06-0.69,1.83l-5.5,16.29
					h-2.16L57.68,90.93z"/>
				<path class="st1" d="M78.4,103.92c0,0.67,0.02,1.17,0.07,1.48c0.05,0.31,0.12,0.56,0.23,0.74c0.11,0.18,0.26,0.33,0.47,0.45
					c0.21,0.12,0.54,0.24,1,0.36v0.74h-6.37v-0.74c0.62-0.16,1.04-0.34,1.25-0.54c0.21-0.2,0.35-0.48,0.42-0.84
					c0.07-0.36,0.1-0.92,0.1-1.66V90.86c0-0.69-0.02-1.2-0.07-1.52c-0.05-0.32-0.13-0.56-0.25-0.74c-0.12-0.18-0.27-0.32-0.46-0.42
					c-0.19-0.11-0.52-0.22-0.98-0.36v-0.74h6.37v0.74c-0.44,0.11-0.76,0.22-0.96,0.33s-0.35,0.25-0.47,0.42
					c-0.12,0.17-0.2,0.42-0.26,0.75s-0.08,0.85-0.08,1.54V103.92z"/>
				<path class="st1" d="M85.19,103c0.2,0.89,0.47,1.59,0.82,2.1c0.34,0.51,0.79,0.89,1.33,1.14c0.54,0.25,1.24,0.37,2.1,0.37
					c1.18,0,2.08-0.31,2.71-0.92c0.63-0.61,0.94-1.51,0.94-2.69c0-0.76-0.13-1.39-0.39-1.9c-0.26-0.51-0.69-1-1.28-1.45
					c-0.6-0.45-1.5-0.98-2.72-1.59c-1.18-0.58-2.11-1.16-2.79-1.71c-0.69-0.56-1.2-1.17-1.53-1.82c-0.34-0.65-0.51-1.37-0.51-2.14
					c0-1.13,0.26-2.11,0.79-2.94c0.53-0.83,1.3-1.47,2.33-1.92c1.02-0.45,2.19-0.68,3.51-0.68c0.77,0,1.51,0.04,2.24,0.12
					c0.73,0.08,1.64,0.26,2.74,0.54v4.08h-1.49c-0.23-0.89-0.52-1.58-0.88-2.07c-0.35-0.49-0.76-0.84-1.24-1.03
					c-0.47-0.2-1.09-0.29-1.84-0.29c-0.65,0-1.24,0.12-1.76,0.36c-0.52,0.24-0.93,0.61-1.23,1.09c-0.3,0.49-0.45,1.07-0.45,1.74
					c0,0.71,0.13,1.32,0.38,1.81c0.26,0.49,0.66,0.95,1.2,1.37c0.54,0.42,1.35,0.9,2.42,1.42c1.29,0.64,2.29,1.24,3,1.8
					s1.26,1.19,1.66,1.89c0.4,0.71,0.6,1.54,0.6,2.48c0,1.06-0.17,1.95-0.5,2.68c-0.33,0.73-0.79,1.32-1.38,1.78
					c-0.59,0.46-1.29,0.79-2.11,1c-0.82,0.21-1.72,0.31-2.69,0.31c-1.58,0-3.4-0.27-5.47-0.8V103H85.19z"/>
				<path class="st1" d="M100.53,103c0.2,0.89,0.47,1.59,0.82,2.1c0.34,0.51,0.78,0.89,1.33,1.14c0.54,0.25,1.24,0.37,2.1,0.37
					c1.18,0,2.08-0.31,2.71-0.92c0.63-0.61,0.94-1.51,0.94-2.69c0-0.76-0.13-1.39-0.39-1.9c-0.26-0.51-0.69-1-1.28-1.45
					c-0.59-0.45-1.5-0.98-2.72-1.59c-1.18-0.58-2.11-1.16-2.79-1.71c-0.68-0.56-1.19-1.17-1.53-1.82c-0.34-0.65-0.51-1.37-0.51-2.14
					c0-1.13,0.26-2.11,0.79-2.94c0.53-0.83,1.3-1.47,2.32-1.92c1.02-0.45,2.19-0.68,3.51-0.68c0.76,0,1.51,0.04,2.24,0.12
					c0.73,0.08,1.64,0.26,2.74,0.54v4.08h-1.49c-0.23-0.89-0.52-1.58-0.87-2.07c-0.35-0.49-0.77-0.84-1.24-1.03
					c-0.47-0.2-1.09-0.29-1.84-0.29c-0.65,0-1.24,0.12-1.76,0.36c-0.52,0.24-0.93,0.61-1.23,1.09c-0.3,0.49-0.45,1.07-0.45,1.74
					c0,0.71,0.13,1.32,0.39,1.81c0.26,0.49,0.66,0.95,1.2,1.37c0.54,0.42,1.35,0.9,2.42,1.42c1.29,0.64,2.29,1.24,3,1.8
					c0.71,0.55,1.26,1.19,1.66,1.89s0.6,1.54,0.6,2.48c0,1.06-0.17,1.95-0.5,2.68c-0.33,0.73-0.79,1.32-1.38,1.78
					c-0.59,0.46-1.29,0.79-2.11,1c-0.82,0.21-1.72,0.31-2.69,0.31c-1.58,0-3.4-0.27-5.47-0.8V103H100.53z"/>
			</g>
		</g>
		<g>
			<g>
				<path class="st2" d="M54.4,62.99c0,2.44-0.22,4.54-0.67,6.3c-0.42,1.68-1.06,3.16-1.91,4.46c-0.78,1.16-1.75,2.15-2.91,2.97
					c-1.16,0.82-2.57,1.46-4.22,1.93c-1.65,0.47-3.6,0.7-5.83,0.7c-2.7,0-5.02-0.3-6.95-0.91c-1.93-0.6-3.53-1.59-4.79-2.97
					c-1.26-1.37-2.17-2.99-2.73-4.86c-0.56-1.86-0.84-4.24-0.84-7.12V41.44c0-1.74-0.06-2.92-0.17-3.54
					c-0.11-0.61-0.27-1.1-0.49-1.46c-0.21-0.36-0.52-0.66-0.92-0.92c-0.4-0.26-1.15-0.53-2.24-0.82v-1.64h14.07v1.64
					c-1.25,0.31-2.12,0.66-2.61,1.06c-0.49,0.39-0.83,0.98-1.01,1.76c-0.18,0.78-0.27,2.09-0.27,3.92v23.72
					c0,2.17,0.23,3.99,0.69,5.46c0.46,1.47,1.1,2.62,1.93,3.43c0.83,0.82,1.81,1.41,2.95,1.78c1.14,0.37,2.56,0.55,4.26,0.55
					c1.56,0,2.94-0.27,4.12-0.82c1.18-0.55,2.17-1.38,2.97-2.5c0.79-1.12,1.33-2.49,1.63-4.12c0.29-1.63,0.44-3.82,0.44-6.57V41.44
					c0-1.94-0.09-3.27-0.28-3.99c-0.19-0.71-0.5-1.26-0.94-1.64c-0.44-0.38-1.34-0.75-2.7-1.11v-1.64h13.37v1.64
					c-1.3,0.33-2.18,0.7-2.66,1.11c-0.48,0.4-0.81,0.98-0.99,1.74c-0.18,0.76-0.27,2.06-0.27,3.89V62.99z"/>
				<path class="st2" d="M75.44,70.43c0,1.5,0.05,2.59,0.15,3.28c0.1,0.69,0.27,1.24,0.5,1.64c0.24,0.4,0.58,0.74,1.04,1.01
					c0.46,0.27,1.2,0.54,2.23,0.8v1.64H65.22v-1.64c1.38-0.36,2.31-0.75,2.78-1.19c0.47-0.44,0.78-1.06,0.92-1.86
					c0.15-0.8,0.22-2.03,0.22-3.69V41.44c0-1.54-0.06-2.66-0.17-3.37c-0.11-0.7-0.3-1.25-0.55-1.64c-0.26-0.39-0.6-0.7-1.02-0.94
					c-0.42-0.23-1.15-0.5-2.18-0.79v-1.64h14.14v1.64c-0.98,0.25-1.69,0.49-2.13,0.74c-0.44,0.25-0.78,0.55-1.04,0.92
					c-0.26,0.37-0.45,0.92-0.57,1.66c-0.12,0.74-0.18,1.88-0.18,3.42V70.43z"/>
				<path class="st2" d="M87.47,78.8v-1.64c1.38-0.36,2.31-0.75,2.78-1.19c0.47-0.44,0.78-1.06,0.92-1.86
					c0.15-0.8,0.22-2.03,0.22-3.69V41.44c0-1.54-0.06-2.66-0.17-3.37s-0.3-1.25-0.55-1.64c-0.26-0.39-0.6-0.7-1.02-0.94
					c-0.42-0.23-1.15-0.5-2.18-0.79v-1.64h18.33c3.55,0,6.41,0.38,8.56,1.14c2.16,0.76,3.76,1.88,4.81,3.37
					c1.05,1.49,1.58,3.4,1.58,5.75c0,1.94-0.37,3.63-1.12,5.06c-0.75,1.43-1.73,2.61-2.93,3.55c-1.21,0.94-2.76,1.81-4.66,2.61v0.3
					c3.04,0.92,5.34,2.33,6.9,4.24c1.56,1.91,2.35,4.18,2.35,6.82c0,3.04-0.68,5.52-2.03,7.44c-1.35,1.92-3.24,3.31-5.68,4.17
					c-2.44,0.86-5.38,1.29-8.85,1.29H87.47z M103.52,53.57c3.4,0,5.99-0.82,7.79-2.46c1.8-1.64,2.7-4.03,2.7-7.15
					c0-1.54-0.25-2.82-0.75-3.84c-0.5-1.02-1.2-1.83-2.08-2.43c-0.88-0.6-1.93-1.03-3.13-1.29c-1.21-0.26-2.51-0.39-3.92-0.39
					c-0.85,0-1.97,0.02-3.35,0.07c-1.39,0.04-2.42,0.09-3.12,0.13v17.36H103.52z M97.66,75.62c1.63,0.16,3.45,0.23,5.46,0.23
					c2.93,0,5.2-0.37,6.82-1.11c1.62-0.74,2.79-1.83,3.52-3.27c0.73-1.44,1.09-3.24,1.09-5.41c0-2.17-0.4-3.95-1.19-5.36
					c-0.79-1.41-2.02-2.46-3.67-3.15c-1.65-0.69-3.93-1.04-6.84-1.04h-5.19V75.62z"/>
			</g>
		</g>
	</g>
</g>
<g>
	<path d="M175.85,41.35c-2.57,0-4.8-0.42-6.7-1.25c-1.9-0.83-3.38-2.12-4.42-3.85c-1.04-1.73-1.56-3.94-1.56-6.62V12.38
		c0-0.31,0.1-0.56,0.3-0.76c0.2-0.2,0.45-0.3,0.76-0.3h5.46c0.31,0,0.57,0.1,0.78,0.3c0.21,0.2,0.32,0.45,0.32,0.76V29.6
		c0,1.83,0.44,3.21,1.31,4.12c0.87,0.92,2.12,1.37,3.72,1.37c1.58,0,2.81-0.46,3.7-1.37c0.89-0.92,1.33-2.29,1.33-4.12V12.38
		c0-0.31,0.11-0.56,0.32-0.76c0.21-0.2,0.46-0.3,0.74-0.3h5.5c0.28,0,0.53,0.1,0.74,0.3c0.21,0.2,0.32,0.45,0.32,0.76v17.26
		c0,2.68-0.52,4.89-1.57,6.62c-1.04,1.73-2.51,3.02-4.4,3.85C180.6,40.94,178.39,41.35,175.85,41.35z"/>
	<path d="M194.67,40.93c-0.31,0-0.56-0.11-0.76-0.32c-0.2-0.21-0.3-0.46-0.3-0.74V19.99c0-0.31,0.1-0.56,0.3-0.76
		c0.2-0.2,0.45-0.3,0.76-0.3h4.86c0.31,0,0.57,0.1,0.78,0.3c0.21,0.2,0.32,0.45,0.32,0.76v1.61c0.7-0.87,1.65-1.61,2.83-2.2
		c1.18-0.59,2.58-0.89,4.19-0.89c1.63,0,3.08,0.37,4.34,1.1c1.25,0.73,2.24,1.81,2.96,3.21c0.72,1.41,1.08,3.16,1.08,5.24v11.8
		c0,0.28-0.1,0.53-0.3,0.74c-0.2,0.21-0.45,0.32-0.76,0.32h-5.33c-0.28,0-0.53-0.11-0.74-0.32c-0.21-0.21-0.32-0.46-0.32-0.74V28.33
		c0-1.33-0.32-2.35-0.95-3.07c-0.63-0.72-1.57-1.08-2.81-1.08c-1.16,0-2.08,0.36-2.77,1.08c-0.69,0.72-1.04,1.74-1.04,3.07v11.55
		c0,0.28-0.11,0.53-0.32,0.74c-0.21,0.21-0.46,0.32-0.74,0.32H194.67z"/>
	<path d="M221.83,15.76c-0.31,0-0.56-0.1-0.76-0.3c-0.2-0.2-0.3-0.45-0.3-0.76V10.9c0-0.28,0.1-0.53,0.3-0.74
		c0.2-0.21,0.45-0.32,0.76-0.32h5.08c0.28,0,0.53,0.11,0.74,0.32c0.21,0.21,0.32,0.46,0.32,0.74v3.81c0,0.31-0.11,0.56-0.32,0.76
		c-0.21,0.2-0.46,0.3-0.74,0.3H221.83z M221.87,40.93c-0.31,0-0.56-0.11-0.76-0.32c-0.2-0.21-0.3-0.46-0.3-0.74V19.99
		c0-0.31,0.1-0.56,0.3-0.76c0.2-0.2,0.45-0.3,0.76-0.3h4.99c0.31,0,0.56,0.1,0.76,0.3c0.2,0.2,0.3,0.45,0.3,0.76v19.88
		c0,0.28-0.1,0.53-0.3,0.74c-0.2,0.21-0.45,0.32-0.76,0.32H221.87z"/>
	<path d="M244.16,40.93c-1.8,0-3.36-0.29-4.67-0.87c-1.31-0.58-2.32-1.48-3.02-2.71c-0.71-1.23-1.06-2.81-1.06-4.76v-8.12h-3.3
		c-0.31,0-0.57-0.1-0.78-0.3c-0.21-0.2-0.32-0.45-0.32-0.76v-3.43c0-0.31,0.11-0.56,0.32-0.76c0.21-0.2,0.47-0.3,0.78-0.3h3.3v-6.98
		c0-0.31,0.11-0.56,0.32-0.76c0.21-0.2,0.46-0.3,0.74-0.3h4.91c0.31,0,0.56,0.1,0.76,0.3c0.2,0.2,0.3,0.45,0.3,0.76v6.98h5.29
		c0.31,0,0.57,0.1,0.78,0.3c0.21,0.2,0.32,0.45,0.32,0.76v3.43c0,0.31-0.11,0.56-0.32,0.76c-0.21,0.2-0.47,0.3-0.78,0.3h-5.29v7.53
		c0,0.96,0.18,1.72,0.55,2.28c0.37,0.56,0.99,0.85,1.86,0.85h3.26c0.31,0,0.56,0.1,0.76,0.3c0.2,0.2,0.3,0.45,0.3,0.76v3.68
		c0,0.28-0.1,0.53-0.3,0.74c-0.2,0.21-0.45,0.32-0.76,0.32H244.16z"/>
	<path d="M262.82,41.35c-3.33,0-5.98-0.9-7.95-2.71c-1.97-1.8-3-4.48-3.09-8.04c0-0.2,0-0.45,0-0.76c0-0.31,0-0.55,0-0.72
		c0.08-2.23,0.58-4.14,1.5-5.73c0.92-1.59,2.19-2.81,3.81-3.64c1.62-0.83,3.52-1.25,5.69-1.25c2.48,0,4.53,0.49,6.15,1.48
		c1.62,0.99,2.84,2.33,3.66,4.02c0.82,1.69,1.23,3.62,1.23,5.8v1.02c0,0.31-0.1,0.56-0.3,0.76c-0.2,0.2-0.45,0.3-0.76,0.3h-13.54
		c0,0.03,0,0.07,0,0.13c0,0.06,0,0.11,0,0.17c0.03,0.82,0.18,1.56,0.44,2.24c0.27,0.68,0.66,1.21,1.19,1.61
		c0.52,0.4,1.16,0.59,1.92,0.59c0.56,0,1.04-0.09,1.42-0.28c0.38-0.18,0.7-0.39,0.95-0.63c0.25-0.24,0.45-0.44,0.59-0.61
		c0.25-0.31,0.46-0.5,0.61-0.57s0.4-0.11,0.74-0.11h5.24c0.28,0,0.51,0.08,0.7,0.25c0.18,0.17,0.26,0.4,0.23,0.68
		c-0.03,0.48-0.27,1.06-0.72,1.73s-1.11,1.35-1.97,2.01c-0.86,0.66-1.94,1.21-3.24,1.63C266.05,41.14,264.54,41.35,262.82,41.35z
		 M259.22,27.69h7.15v-0.08c0-0.93-0.13-1.73-0.4-2.39c-0.27-0.66-0.68-1.18-1.23-1.54c-0.55-0.37-1.21-0.55-1.97-0.55
		c-0.73,0-1.37,0.18-1.9,0.55c-0.54,0.37-0.95,0.88-1.23,1.54c-0.28,0.66-0.42,1.46-0.42,2.39V27.69z"/>
	<path d="M286,41.35c-1.35,0-2.57-0.22-3.66-0.66c-1.09-0.44-2.02-1.09-2.79-1.95c-0.78-0.86-1.37-1.9-1.8-3.13
		c-0.42-1.23-0.66-2.63-0.72-4.21c-0.03-0.56-0.04-1.06-0.04-1.5c0-0.44,0.01-0.94,0.04-1.5c0.06-1.49,0.3-2.86,0.72-4.08
		c0.42-1.23,1.02-2.27,1.78-3.13c0.76-0.86,1.69-1.52,2.79-1.99c1.1-0.47,2.33-0.7,3.68-0.7c1.41,0,2.62,0.23,3.64,0.7
		c1.02,0.47,1.88,1.06,2.58,1.8v-9.05c0-0.31,0.1-0.56,0.3-0.76c0.2-0.2,0.45-0.3,0.76-0.3h5.16c0.28,0,0.53,0.1,0.74,0.3
		c0.21,0.2,0.32,0.45,0.32,0.76v27.92c0,0.28-0.11,0.53-0.32,0.74c-0.21,0.21-0.46,0.32-0.74,0.32h-4.78
		c-0.31,0-0.56-0.11-0.76-0.32c-0.2-0.21-0.3-0.46-0.3-0.74v-1.35c-0.68,0.82-1.55,1.49-2.62,2.03
		C288.9,41.09,287.58,41.35,286,41.35z M288.33,35.69c0.93,0,1.67-0.2,2.22-0.61c0.55-0.41,0.96-0.94,1.23-1.59
		c0.27-0.65,0.42-1.35,0.44-2.12c0.03-0.56,0.04-1.1,0.04-1.61c0-0.51-0.01-1.03-0.04-1.56c-0.03-0.7-0.18-1.36-0.47-1.97
		c-0.28-0.61-0.71-1.1-1.27-1.48c-0.56-0.38-1.28-0.57-2.16-0.57c-0.93,0-1.67,0.2-2.22,0.59c-0.55,0.4-0.95,0.93-1.18,1.61
		c-0.24,0.68-0.39,1.42-0.44,2.24c-0.08,0.87-0.08,1.75,0,2.62c0.06,0.82,0.2,1.56,0.44,2.24c0.24,0.68,0.63,1.21,1.18,1.61
		C286.65,35.49,287.39,35.69,288.33,35.69z"/>
	<path d="M164.47,85.83c-0.31,0-0.56-0.11-0.76-0.32c-0.2-0.21-0.3-0.46-0.3-0.74V57.28c0-0.31,0.1-0.56,0.3-0.76
		c0.2-0.2,0.45-0.3,0.76-0.3h5.67c0.31,0,0.57,0.1,0.78,0.3c0.21,0.2,0.32,0.45,0.32,0.76v27.49c0,0.28-0.11,0.53-0.32,0.74
		c-0.21,0.21-0.47,0.32-0.78,0.32H164.47z"/>
	<path d="M177.71,85.83c-0.31,0-0.56-0.11-0.76-0.32c-0.2-0.21-0.3-0.46-0.3-0.74V64.9c0-0.31,0.1-0.56,0.3-0.76
		c0.2-0.2,0.45-0.3,0.76-0.3h4.86c0.31,0,0.57,0.1,0.78,0.3c0.21,0.2,0.32,0.45,0.32,0.76v1.61c0.7-0.87,1.65-1.61,2.83-2.2
		c1.18-0.59,2.58-0.89,4.19-0.89c1.63,0,3.08,0.37,4.34,1.1c1.25,0.73,2.24,1.81,2.96,3.21c0.72,1.41,1.08,3.16,1.08,5.24v11.8
		c0,0.28-0.1,0.53-0.3,0.74c-0.2,0.21-0.45,0.32-0.76,0.32h-5.33c-0.28,0-0.53-0.11-0.74-0.32c-0.21-0.21-0.32-0.46-0.32-0.74V73.23
		c0-1.33-0.32-2.35-0.95-3.07c-0.63-0.72-1.57-1.08-2.81-1.08c-1.16,0-2.08,0.36-2.77,1.08c-0.69,0.72-1.04,1.74-1.04,3.07v11.55
		c0,0.28-0.11,0.53-0.32,0.74c-0.21,0.21-0.46,0.32-0.74,0.32H177.71z"/>
	<path d="M214.89,85.83c-1.8,0-3.36-0.29-4.67-0.87c-1.31-0.58-2.32-1.48-3.02-2.71c-0.71-1.23-1.06-2.81-1.06-4.76v-8.12h-3.3
		c-0.31,0-0.57-0.1-0.78-0.3c-0.21-0.2-0.32-0.45-0.32-0.76V64.9c0-0.31,0.11-0.56,0.32-0.76c0.21-0.2,0.47-0.3,0.78-0.3h3.3v-6.98
		c0-0.31,0.11-0.56,0.32-0.76c0.21-0.2,0.46-0.3,0.74-0.3h4.91c0.31,0,0.56,0.1,0.76,0.3c0.2,0.2,0.3,0.45,0.3,0.76v6.98h5.29
		c0.31,0,0.57,0.1,0.78,0.3c0.21,0.2,0.32,0.45,0.32,0.76v3.43c0,0.31-0.11,0.56-0.32,0.76c-0.21,0.2-0.47,0.3-0.78,0.3h-5.29v7.53
		c0,0.96,0.18,1.72,0.55,2.28c0.37,0.56,0.99,0.85,1.86,0.85h3.26c0.31,0,0.56,0.1,0.76,0.3c0.2,0.2,0.3,0.45,0.3,0.76v3.68
		c0,0.28-0.1,0.53-0.3,0.74c-0.2,0.21-0.45,0.32-0.76,0.32H214.89z"/>
	<path d="M233.55,86.26c-3.33,0-5.98-0.9-7.95-2.71c-1.97-1.8-3-4.48-3.09-8.04c0-0.2,0-0.45,0-0.76c0-0.31,0-0.55,0-0.72
		c0.08-2.23,0.58-4.14,1.5-5.73c0.92-1.59,2.19-2.81,3.81-3.64c1.62-0.83,3.52-1.25,5.69-1.25c2.48,0,4.53,0.49,6.15,1.48
		c1.62,0.99,2.84,2.33,3.66,4.02c0.82,1.69,1.23,3.62,1.23,5.8v1.02c0,0.31-0.1,0.56-0.3,0.76c-0.2,0.2-0.45,0.3-0.76,0.3h-13.54
		c0,0.03,0,0.07,0,0.13c0,0.06,0,0.11,0,0.17c0.03,0.82,0.18,1.56,0.44,2.24c0.27,0.68,0.66,1.21,1.18,1.61
		c0.52,0.4,1.16,0.59,1.92,0.59c0.56,0,1.04-0.09,1.42-0.27c0.38-0.18,0.7-0.39,0.95-0.63c0.25-0.24,0.45-0.44,0.59-0.61
		c0.25-0.31,0.46-0.5,0.61-0.57c0.15-0.07,0.4-0.11,0.74-0.11h5.24c0.28,0,0.51,0.08,0.7,0.25c0.18,0.17,0.26,0.4,0.23,0.68
		c-0.03,0.48-0.27,1.06-0.72,1.73c-0.45,0.68-1.11,1.35-1.97,2.01c-0.86,0.66-1.94,1.21-3.24,1.63
		C236.78,86.04,235.27,86.26,233.55,86.26z M229.95,72.59h7.15v-0.08c0-0.93-0.13-1.73-0.4-2.39c-0.27-0.66-0.68-1.18-1.23-1.54
		c-0.55-0.37-1.21-0.55-1.97-0.55c-0.73,0-1.37,0.18-1.9,0.55c-0.54,0.37-0.95,0.88-1.23,1.54c-0.28,0.66-0.42,1.46-0.42,2.39V72.59
		z"/>
	<path d="M249.58,85.83c-0.31,0-0.56-0.11-0.76-0.32c-0.2-0.21-0.3-0.46-0.3-0.74V64.9c0-0.28,0.1-0.53,0.3-0.74
		c0.2-0.21,0.45-0.32,0.76-0.32h4.86c0.31,0,0.57,0.11,0.78,0.32c0.21,0.21,0.32,0.46,0.32,0.74v1.69c0.73-0.87,1.63-1.55,2.69-2.03
		c1.06-0.48,2.25-0.72,3.57-0.72h1.86c0.31,0,0.56,0.1,0.76,0.3c0.2,0.2,0.3,0.45,0.3,0.76v4.36c0,0.28-0.1,0.53-0.3,0.74
		c-0.2,0.21-0.45,0.32-0.76,0.32h-4.1c-1.16,0-2.05,0.32-2.69,0.95c-0.63,0.63-0.95,1.53-0.95,2.69v10.83
		c0,0.28-0.11,0.53-0.32,0.74c-0.21,0.21-0.47,0.32-0.78,0.32H249.58z"/>
	<path d="M268.78,85.83c-0.31,0-0.56-0.11-0.76-0.32c-0.2-0.21-0.3-0.46-0.3-0.74V64.9c0-0.31,0.1-0.56,0.3-0.76
		c0.2-0.2,0.45-0.3,0.76-0.3h4.86c0.31,0,0.57,0.1,0.78,0.3c0.21,0.2,0.32,0.45,0.32,0.76v1.61c0.7-0.87,1.65-1.61,2.83-2.2
		c1.18-0.59,2.58-0.89,4.19-0.89c1.64,0,3.08,0.37,4.34,1.1c1.25,0.73,2.24,1.81,2.96,3.21c0.72,1.41,1.08,3.16,1.08,5.24v11.8
		c0,0.28-0.1,0.53-0.3,0.74c-0.2,0.21-0.45,0.32-0.76,0.32h-5.33c-0.28,0-0.53-0.11-0.74-0.32c-0.21-0.21-0.32-0.46-0.32-0.74V73.23
		c0-1.33-0.32-2.35-0.95-3.07c-0.63-0.72-1.57-1.08-2.81-1.08c-1.16,0-2.08,0.36-2.77,1.08c-0.69,0.72-1.04,1.74-1.04,3.07v11.55
		c0,0.28-0.11,0.53-0.32,0.74c-0.21,0.21-0.46,0.32-0.74,0.32H268.78z"/>
	<path d="M301.52,86.26c-1.52,0-2.88-0.29-4.08-0.87c-1.2-0.58-2.15-1.36-2.86-2.35c-0.71-0.99-1.06-2.1-1.06-3.34
		c0-2,0.82-3.59,2.45-4.76c1.63-1.17,3.81-1.97,6.51-2.39l5.29-0.8v-0.59c0-1.01-0.21-1.79-0.63-2.33c-0.42-0.54-1.2-0.8-2.33-0.8
		c-0.79,0-1.43,0.16-1.92,0.47c-0.49,0.31-0.88,0.73-1.16,1.27c-0.25,0.37-0.61,0.55-1.06,0.55h-4.74c-0.31,0-0.55-0.09-0.72-0.28
		c-0.17-0.18-0.24-0.4-0.21-0.66c0-0.51,0.19-1.09,0.57-1.76c0.38-0.66,0.97-1.32,1.76-1.97c0.79-0.65,1.8-1.18,3.05-1.61
		c1.24-0.42,2.75-0.63,4.53-0.63c1.8,0,3.36,0.21,4.65,0.63c1.3,0.42,2.35,1.02,3.17,1.78c0.82,0.76,1.42,1.66,1.8,2.69
		c0.38,1.03,0.57,2.16,0.57,3.4v12.86c0,0.28-0.11,0.53-0.32,0.74c-0.21,0.21-0.46,0.32-0.74,0.32h-4.91
		c-0.31,0-0.56-0.11-0.76-0.32c-0.2-0.21-0.3-0.46-0.3-0.74V83.3c-0.37,0.54-0.86,1.03-1.48,1.48c-0.62,0.45-1.35,0.81-2.18,1.08
		C303.59,86.12,302.62,86.26,301.52,86.26z M303.51,81.43c0.82,0,1.56-0.18,2.22-0.53c0.66-0.35,1.18-0.9,1.56-1.65
		c0.38-0.75,0.57-1.69,0.57-2.81v-0.59l-3.6,0.63c-1.33,0.23-2.29,0.57-2.9,1.04c-0.61,0.46-0.91,1.01-0.91,1.63
		c0,0.48,0.14,0.89,0.42,1.23c0.28,0.34,0.66,0.6,1.12,0.78C302.47,81.34,302.97,81.43,303.51,81.43z"/>
	<path d="M330.96,85.83c-1.8,0-3.36-0.29-4.67-0.87c-1.31-0.58-2.32-1.48-3.02-2.71c-0.71-1.23-1.06-2.81-1.06-4.76v-8.12h-3.3
		c-0.31,0-0.57-0.1-0.78-0.3c-0.21-0.2-0.32-0.45-0.32-0.76V64.9c0-0.31,0.11-0.56,0.32-0.76c0.21-0.2,0.47-0.3,0.78-0.3h3.3v-6.98
		c0-0.31,0.11-0.56,0.32-0.76c0.21-0.2,0.46-0.3,0.74-0.3h4.91c0.31,0,0.56,0.1,0.76,0.3c0.2,0.2,0.3,0.45,0.3,0.76v6.98h5.29
		c0.31,0,0.57,0.1,0.78,0.3c0.21,0.2,0.32,0.45,0.32,0.76v3.43c0,0.31-0.11,0.56-0.32,0.76c-0.21,0.2-0.47,0.3-0.78,0.3h-5.29v7.53
		c0,0.96,0.18,1.72,0.55,2.28c0.37,0.56,0.99,0.85,1.86,0.85h3.26c0.31,0,0.56,0.1,0.76,0.3c0.2,0.2,0.3,0.45,0.3,0.76v3.68
		c0,0.28-0.1,0.53-0.3,0.74c-0.2,0.21-0.45,0.32-0.76,0.32H330.96z"/>
	<path d="M340.48,60.67c-0.31,0-0.56-0.1-0.76-0.3c-0.2-0.2-0.3-0.45-0.3-0.76V55.8c0-0.28,0.1-0.53,0.3-0.74
		c0.2-0.21,0.45-0.32,0.76-0.32h5.08c0.28,0,0.53,0.11,0.74,0.32c0.21,0.21,0.32,0.46,0.32,0.74v3.81c0,0.31-0.11,0.56-0.32,0.76
		c-0.21,0.2-0.46,0.3-0.74,0.3H340.48z M340.52,85.83c-0.31,0-0.56-0.11-0.76-0.32c-0.2-0.21-0.3-0.46-0.3-0.74V64.9
		c0-0.31,0.1-0.56,0.3-0.76c0.2-0.2,0.45-0.3,0.76-0.3h4.99c0.31,0,0.56,0.1,0.76,0.3c0.2,0.2,0.3,0.45,0.3,0.76v19.88
		c0,0.28-0.1,0.53-0.3,0.74c-0.2,0.21-0.45,0.32-0.76,0.32H340.52z"/>
	<path d="M361.97,86.26c-2.37,0-4.36-0.38-5.99-1.14c-1.62-0.76-2.86-1.85-3.72-3.28c-0.86-1.42-1.35-3.12-1.46-5.1
		c-0.03-0.56-0.04-1.21-0.04-1.92c0-0.72,0.01-1.35,0.04-1.88c0.11-2,0.62-3.71,1.52-5.12c0.9-1.41,2.16-2.5,3.79-3.26
		c1.62-0.76,3.57-1.14,5.86-1.14c2.31,0,4.28,0.38,5.9,1.14c1.62,0.76,2.88,1.85,3.79,3.26c0.9,1.41,1.41,3.12,1.52,5.12
		c0.03,0.54,0.04,1.16,0.04,1.88c0,0.72-0.02,1.36-0.04,1.92c-0.11,1.97-0.6,3.67-1.46,5.1c-0.86,1.42-2.1,2.52-3.72,3.28
		C366.37,85.88,364.36,86.26,361.97,86.26z M361.97,81.1c1.27,0,2.19-0.38,2.77-1.14s0.91-1.9,0.99-3.43
		c0.03-0.42,0.04-0.99,0.04-1.69c0-0.7-0.02-1.27-0.04-1.69c-0.08-1.49-0.42-2.63-0.99-3.41c-0.58-0.78-1.5-1.16-2.77-1.16
		c-1.21,0-2.12,0.39-2.73,1.16c-0.61,0.78-0.94,1.91-0.99,3.41c-0.03,0.42-0.04,0.99-0.04,1.69c0,0.71,0.01,1.27,0.04,1.69
		c0.06,1.52,0.39,2.66,0.99,3.43C359.85,80.72,360.75,81.1,361.97,81.1z"/>
	<path d="M378.46,85.83c-0.31,0-0.56-0.11-0.76-0.32c-0.2-0.21-0.3-0.46-0.3-0.74V64.9c0-0.31,0.1-0.56,0.3-0.76
		c0.2-0.2,0.45-0.3,0.76-0.3h4.86c0.31,0,0.57,0.1,0.78,0.3c0.21,0.2,0.32,0.45,0.32,0.76v1.61c0.7-0.87,1.65-1.61,2.83-2.2
		c1.18-0.59,2.58-0.89,4.19-0.89c1.64,0,3.08,0.37,4.34,1.1c1.25,0.73,2.24,1.81,2.96,3.21c0.72,1.41,1.08,3.16,1.08,5.24v11.8
		c0,0.28-0.1,0.53-0.3,0.74c-0.2,0.21-0.45,0.32-0.76,0.32h-5.33c-0.28,0-0.53-0.11-0.74-0.32c-0.21-0.21-0.32-0.46-0.32-0.74V73.23
		c0-1.33-0.32-2.35-0.95-3.07c-0.63-0.72-1.57-1.08-2.81-1.08c-1.16,0-2.08,0.36-2.77,1.08c-0.69,0.72-1.04,1.74-1.04,3.07v11.55
		c0,0.28-0.11,0.53-0.32,0.74c-0.21,0.21-0.46,0.32-0.74,0.32H378.46z"/>
	<path d="M411.2,86.26c-1.52,0-2.88-0.29-4.08-0.87c-1.2-0.58-2.15-1.36-2.86-2.35c-0.71-0.99-1.06-2.1-1.06-3.34
		c0-2,0.82-3.59,2.45-4.76c1.63-1.17,3.81-1.97,6.51-2.39l5.29-0.8v-0.59c0-1.01-0.21-1.79-0.63-2.33c-0.42-0.54-1.2-0.8-2.33-0.8
		c-0.79,0-1.43,0.16-1.92,0.47c-0.49,0.31-0.88,0.73-1.16,1.27c-0.25,0.37-0.61,0.55-1.06,0.55h-4.74c-0.31,0-0.55-0.09-0.72-0.28
		c-0.17-0.18-0.24-0.4-0.21-0.66c0-0.51,0.19-1.09,0.57-1.76c0.38-0.66,0.97-1.32,1.76-1.97c0.79-0.65,1.8-1.18,3.05-1.61
		c1.24-0.42,2.75-0.63,4.53-0.63c1.8,0,3.36,0.21,4.65,0.63c1.3,0.42,2.35,1.02,3.17,1.78c0.82,0.76,1.42,1.66,1.8,2.69
		c0.38,1.03,0.57,2.16,0.57,3.4v12.86c0,0.28-0.11,0.53-0.32,0.74c-0.21,0.21-0.46,0.32-0.74,0.32h-4.91
		c-0.31,0-0.56-0.11-0.76-0.32c-0.2-0.21-0.3-0.46-0.3-0.74V83.3c-0.37,0.54-0.86,1.03-1.48,1.48c-0.62,0.45-1.35,0.81-2.18,1.08
		C413.27,86.12,412.3,86.26,411.2,86.26z M413.19,81.43c0.82,0,1.56-0.18,2.22-0.53c0.66-0.35,1.18-0.9,1.56-1.65
		c0.38-0.75,0.57-1.69,0.57-2.81v-0.59l-3.6,0.63c-1.33,0.23-2.29,0.57-2.9,1.04c-0.61,0.46-0.91,1.01-0.91,1.63
		c0,0.48,0.14,0.89,0.42,1.23c0.28,0.34,0.66,0.6,1.12,0.78C412.16,81.34,412.66,81.43,413.19,81.43z"/>
	<path d="M430.62,85.83c-0.31,0-0.56-0.11-0.76-0.32c-0.2-0.21-0.3-0.46-0.3-0.74V56.86c0-0.31,0.1-0.56,0.3-0.76
		c0.2-0.2,0.45-0.3,0.76-0.3h4.99c0.31,0,0.56,0.1,0.76,0.3c0.2,0.2,0.3,0.45,0.3,0.76v27.92c0,0.28-0.1,0.53-0.3,0.74
		c-0.2,0.21-0.45,0.32-0.76,0.32H430.62z"/>
	<path d="M164.47,130.74c-0.31,0-0.56-0.11-0.76-0.32c-0.2-0.21-0.3-0.46-0.3-0.74v-27.49c0-0.31,0.1-0.56,0.3-0.76
		c0.2-0.2,0.45-0.3,0.76-0.3h12.9c2.42,0,4.41,0.34,5.96,1.01c1.55,0.68,2.7,1.64,3.45,2.9c0.75,1.25,1.12,2.74,1.12,4.46
		c0,1.01-0.19,1.91-0.57,2.69c-0.38,0.78-0.85,1.42-1.4,1.92c-0.55,0.51-1.06,0.87-1.54,1.1c1.07,0.51,2.02,1.34,2.86,2.49
		c0.83,1.16,1.25,2.51,1.25,4.06c0,1.86-0.42,3.46-1.25,4.8c-0.83,1.34-2.05,2.37-3.64,3.09c-1.59,0.72-3.55,1.08-5.86,1.08H164.47z
		 M171.03,112.89h5.5c1.16,0,2.02-0.3,2.6-0.91c0.58-0.61,0.87-1.36,0.87-2.26s-0.29-1.64-0.87-2.22c-0.58-0.58-1.45-0.87-2.6-0.87
		h-5.5V112.89z M171.03,125.24h5.88c1.21,0,2.13-0.35,2.75-1.06c0.62-0.7,0.93-1.51,0.93-2.41c0-0.99-0.32-1.82-0.95-2.49
		c-0.63-0.68-1.54-1.02-2.73-1.02h-5.88V125.24z"/>
	<path d="M200.81,131.16c-1.61,0-3.04-0.37-4.29-1.1c-1.26-0.73-2.24-1.81-2.94-3.24c-0.71-1.42-1.06-3.17-1.06-5.22v-11.8
		c0-0.31,0.1-0.56,0.3-0.76c0.2-0.2,0.45-0.3,0.76-0.3h5.29c0.31,0,0.57,0.1,0.78,0.3c0.21,0.2,0.32,0.45,0.32,0.76v11.55
		c0,2.76,1.23,4.15,3.68,4.15c1.16,0,2.08-0.36,2.77-1.08c0.69-0.72,1.04-1.74,1.04-3.07V109.8c0-0.31,0.1-0.56,0.3-0.76
		c0.2-0.2,0.45-0.3,0.76-0.3h5.29c0.31,0,0.56,0.1,0.76,0.3c0.2,0.2,0.3,0.45,0.3,0.76v19.88c0,0.28-0.1,0.53-0.3,0.74
		c-0.2,0.21-0.45,0.32-0.76,0.32h-4.91c-0.28,0-0.53-0.11-0.74-0.32c-0.21-0.21-0.32-0.46-0.32-0.74v-1.61
		c-0.73,1.02-1.69,1.78-2.86,2.31C203.8,130.9,202.42,131.16,200.81,131.16z"/>
	<path d="M228.9,131.16c-1.83,0-3.39-0.2-4.67-0.61c-1.28-0.41-2.33-0.91-3.13-1.5c-0.8-0.59-1.4-1.21-1.8-1.84
		c-0.4-0.63-0.61-1.19-0.63-1.67c-0.03-0.31,0.07-0.56,0.3-0.76c0.23-0.2,0.47-0.3,0.72-0.3h4.82c0.08,0,0.16,0.02,0.23,0.04
		c0.07,0.03,0.15,0.08,0.23,0.17c0.37,0.2,0.73,0.44,1.1,0.74c0.37,0.3,0.79,0.56,1.27,0.78c0.48,0.23,1.06,0.34,1.73,0.34
		c0.79,0,1.45-0.16,1.99-0.49c0.54-0.32,0.8-0.78,0.8-1.37c0-0.45-0.13-0.82-0.38-1.12c-0.25-0.3-0.77-0.58-1.54-0.87
		c-0.78-0.28-1.94-0.56-3.49-0.85c-1.47-0.34-2.75-0.78-3.85-1.33c-1.1-0.55-1.95-1.27-2.54-2.16c-0.59-0.89-0.89-1.97-0.89-3.24
		c0-1.13,0.37-2.21,1.1-3.26c0.73-1.04,1.8-1.9,3.21-2.56c1.41-0.66,3.16-0.99,5.24-0.99c1.61,0,3.02,0.19,4.23,0.57
		c1.21,0.38,2.23,0.87,3.05,1.46c0.82,0.59,1.44,1.2,1.86,1.82c0.42,0.62,0.65,1.18,0.68,1.69c0.03,0.28-0.06,0.53-0.25,0.74
		c-0.2,0.21-0.42,0.32-0.68,0.32h-4.4c-0.11,0-0.23-0.02-0.34-0.06c-0.11-0.04-0.21-0.09-0.3-0.15c-0.34-0.17-0.68-0.39-1.02-0.68
		c-0.34-0.28-0.73-0.54-1.18-0.76c-0.45-0.22-1.02-0.34-1.69-0.34c-0.76,0-1.35,0.17-1.78,0.51c-0.42,0.34-0.63,0.78-0.63,1.31
		c0,0.37,0.12,0.71,0.36,1.01c0.24,0.31,0.73,0.59,1.48,0.85c0.75,0.25,1.91,0.54,3.49,0.85c1.95,0.31,3.5,0.81,4.65,1.5
		c1.16,0.69,1.98,1.49,2.47,2.41c0.49,0.92,0.74,1.88,0.74,2.9c0,1.35-0.41,2.55-1.23,3.6c-0.82,1.04-2.01,1.85-3.57,2.43
		C233.1,130.87,231.18,131.16,228.9,131.16z"/>
	<path d="M244.25,105.57c-0.31,0-0.56-0.1-0.76-0.3c-0.2-0.2-0.3-0.45-0.3-0.76v-3.81c0-0.28,0.1-0.53,0.3-0.74
		c0.2-0.21,0.45-0.32,0.76-0.32h5.08c0.28,0,0.53,0.11,0.74,0.32c0.21,0.21,0.32,0.46,0.32,0.74v3.81c0,0.31-0.11,0.56-0.32,0.76
		c-0.21,0.2-0.46,0.3-0.74,0.3H244.25z M244.29,130.74c-0.31,0-0.56-0.11-0.76-0.32c-0.2-0.21-0.3-0.46-0.3-0.74V109.8
		c0-0.31,0.1-0.56,0.3-0.76c0.2-0.2,0.45-0.3,0.76-0.3h4.99c0.31,0,0.56,0.1,0.76,0.3c0.2,0.2,0.3,0.45,0.3,0.76v19.88
		c0,0.28-0.1,0.53-0.3,0.74c-0.2,0.21-0.45,0.32-0.76,0.32H244.29z"/>
	<path d="M256.39,130.74c-0.31,0-0.56-0.11-0.76-0.32c-0.2-0.21-0.3-0.46-0.3-0.74V109.8c0-0.31,0.1-0.56,0.3-0.76
		c0.2-0.2,0.45-0.3,0.76-0.3h4.87c0.31,0,0.57,0.1,0.78,0.3c0.21,0.2,0.32,0.45,0.32,0.76v1.61c0.7-0.87,1.65-1.61,2.83-2.2
		c1.19-0.59,2.58-0.89,4.19-0.89c1.64,0,3.08,0.37,4.34,1.1c1.25,0.73,2.24,1.8,2.96,3.21c0.72,1.41,1.08,3.16,1.08,5.24v11.8
		c0,0.28-0.1,0.53-0.3,0.74c-0.2,0.21-0.45,0.32-0.76,0.32h-5.33c-0.28,0-0.53-0.11-0.74-0.32c-0.21-0.21-0.32-0.46-0.32-0.74
		v-11.55c0-1.33-0.32-2.35-0.95-3.07c-0.63-0.72-1.57-1.08-2.81-1.08c-1.16,0-2.08,0.36-2.77,1.08c-0.69,0.72-1.04,1.74-1.04,3.07
		v11.55c0,0.28-0.11,0.53-0.32,0.74c-0.21,0.21-0.46,0.32-0.74,0.32H256.39z"/>
	<path d="M292.68,131.16c-3.33,0-5.98-0.9-7.95-2.71c-1.97-1.8-3-4.48-3.09-8.04c0-0.2,0-0.45,0-0.76c0-0.31,0-0.55,0-0.72
		c0.08-2.23,0.58-4.14,1.5-5.73c0.92-1.59,2.18-2.81,3.81-3.64c1.62-0.83,3.52-1.25,5.69-1.25c2.48,0,4.53,0.49,6.15,1.48
		s2.84,2.33,3.66,4.02c0.82,1.69,1.23,3.62,1.23,5.8v1.02c0,0.31-0.1,0.56-0.3,0.76c-0.2,0.2-0.45,0.3-0.76,0.3h-13.53
		c0,0.03,0,0.07,0,0.13c0,0.06,0,0.11,0,0.17c0.03,0.82,0.18,1.56,0.44,2.24c0.27,0.68,0.66,1.21,1.18,1.61
		c0.52,0.4,1.16,0.59,1.92,0.59c0.56,0,1.04-0.09,1.42-0.27c0.38-0.18,0.7-0.39,0.95-0.63c0.25-0.24,0.45-0.44,0.59-0.61
		c0.25-0.31,0.46-0.5,0.61-0.57c0.15-0.07,0.4-0.11,0.74-0.11h5.24c0.28,0,0.51,0.08,0.7,0.25c0.18,0.17,0.26,0.4,0.23,0.68
		c-0.03,0.48-0.27,1.06-0.72,1.73c-0.45,0.68-1.11,1.35-1.97,2.01c-0.86,0.66-1.94,1.21-3.24,1.63
		C295.91,130.95,294.4,131.16,292.68,131.16z M289.09,117.5h7.15v-0.08c0-0.93-0.13-1.73-0.4-2.39c-0.27-0.66-0.68-1.18-1.23-1.54
		s-1.21-0.55-1.97-0.55c-0.73,0-1.37,0.18-1.9,0.55c-0.54,0.37-0.95,0.88-1.23,1.54c-0.28,0.66-0.42,1.46-0.42,2.39V117.5z"/>
	<path d="M316.71,131.16c-1.83,0-3.39-0.2-4.67-0.61c-1.28-0.41-2.33-0.91-3.13-1.5c-0.8-0.59-1.4-1.21-1.8-1.84
		s-0.61-1.19-0.63-1.67c-0.03-0.31,0.07-0.56,0.3-0.76c0.22-0.2,0.46-0.3,0.72-0.3h4.82c0.08,0,0.16,0.02,0.23,0.04
		c0.07,0.03,0.15,0.08,0.23,0.17c0.37,0.2,0.73,0.44,1.1,0.74s0.79,0.56,1.27,0.78c0.48,0.23,1.06,0.34,1.73,0.34
		c0.79,0,1.45-0.16,1.99-0.49c0.54-0.32,0.8-0.78,0.8-1.37c0-0.45-0.13-0.82-0.38-1.12c-0.25-0.3-0.77-0.58-1.54-0.87
		c-0.78-0.28-1.94-0.56-3.49-0.85c-1.47-0.34-2.75-0.78-3.85-1.33c-1.1-0.55-1.95-1.27-2.54-2.16c-0.59-0.89-0.89-1.97-0.89-3.24
		c0-1.13,0.37-2.21,1.1-3.26c0.73-1.04,1.8-1.9,3.21-2.56c1.41-0.66,3.16-0.99,5.25-0.99c1.61,0,3.02,0.19,4.23,0.57
		c1.21,0.38,2.23,0.87,3.05,1.46c0.82,0.59,1.44,1.2,1.86,1.82c0.42,0.62,0.65,1.18,0.68,1.69c0.03,0.28-0.06,0.53-0.25,0.74
		c-0.2,0.21-0.42,0.32-0.68,0.32h-4.4c-0.11,0-0.23-0.02-0.34-0.06c-0.11-0.04-0.21-0.09-0.3-0.15c-0.34-0.17-0.68-0.39-1.01-0.68
		c-0.34-0.28-0.73-0.54-1.18-0.76c-0.45-0.22-1.02-0.34-1.69-0.34c-0.76,0-1.35,0.17-1.78,0.51c-0.42,0.34-0.63,0.78-0.63,1.31
		c0,0.37,0.12,0.71,0.36,1.01c0.24,0.31,0.73,0.59,1.48,0.85c0.75,0.25,1.91,0.54,3.49,0.85c1.95,0.31,3.5,0.81,4.65,1.5
		c1.16,0.69,1.98,1.49,2.47,2.41c0.49,0.92,0.74,1.88,0.74,2.9c0,1.35-0.41,2.55-1.23,3.6c-0.82,1.04-2.01,1.85-3.57,2.43
		C320.92,130.87,318.99,131.16,316.71,131.16z"/>
	<path d="M340.1,131.16c-1.83,0-3.39-0.2-4.67-0.61c-1.28-0.41-2.33-0.91-3.13-1.5c-0.8-0.59-1.4-1.21-1.8-1.84
		s-0.61-1.19-0.63-1.67c-0.03-0.31,0.07-0.56,0.3-0.76c0.22-0.2,0.46-0.3,0.72-0.3h4.82c0.08,0,0.16,0.02,0.23,0.04
		c0.07,0.03,0.15,0.08,0.23,0.17c0.37,0.2,0.73,0.44,1.1,0.74s0.79,0.56,1.27,0.78c0.48,0.23,1.06,0.34,1.73,0.34
		c0.79,0,1.45-0.16,1.99-0.49c0.54-0.32,0.8-0.78,0.8-1.37c0-0.45-0.13-0.82-0.38-1.12c-0.25-0.3-0.77-0.58-1.54-0.87
		c-0.78-0.28-1.94-0.56-3.49-0.85c-1.47-0.34-2.75-0.78-3.85-1.33c-1.1-0.55-1.95-1.27-2.54-2.16c-0.59-0.89-0.89-1.97-0.89-3.24
		c0-1.13,0.37-2.21,1.1-3.26c0.73-1.04,1.8-1.9,3.21-2.56c1.41-0.66,3.16-0.99,5.25-0.99c1.61,0,3.02,0.19,4.23,0.57
		c1.21,0.38,2.23,0.87,3.05,1.46c0.82,0.59,1.44,1.2,1.86,1.82c0.42,0.62,0.65,1.18,0.68,1.69c0.03,0.28-0.06,0.53-0.25,0.74
		c-0.2,0.21-0.42,0.32-0.68,0.32h-4.4c-0.11,0-0.23-0.02-0.34-0.06c-0.11-0.04-0.21-0.09-0.3-0.15c-0.34-0.17-0.68-0.39-1.01-0.68
		c-0.34-0.28-0.73-0.54-1.18-0.76c-0.45-0.22-1.02-0.34-1.69-0.34c-0.76,0-1.35,0.17-1.78,0.51c-0.42,0.34-0.63,0.78-0.63,1.31
		c0,0.37,0.12,0.71,0.36,1.01c0.24,0.31,0.73,0.59,1.48,0.85c0.75,0.25,1.91,0.54,3.49,0.85c1.95,0.31,3.5,0.81,4.65,1.5
		c1.16,0.69,1.98,1.49,2.47,2.41c0.49,0.92,0.74,1.88,0.74,2.9c0,1.35-0.41,2.55-1.23,3.6c-0.82,1.04-2.01,1.85-3.57,2.43
		C344.31,130.87,342.38,131.16,340.1,131.16z"/>
</g>
</svg>
